<svg width="147" height="42" viewBox="0 0 147 42" fill="none" xmlns="http://www.w3.org/2000/svg">
<path d="M61.304 10.1818L67.3764 27.9517H67.6214L73.6939 10.1818H77.2521L69.4006 32H65.5973L57.7457 10.1818H61.304ZM85.5591 32.3303C83.9469 32.3303 82.5584 31.9858 81.3936 31.2969C80.236 30.6009 79.3411 29.6243 78.709 28.3672C78.084 27.103 77.7715 25.6222 77.7715 23.9247C77.7715 22.2486 78.084 20.7713 78.709 19.4929C79.3411 18.2145 80.2218 17.2166 81.351 16.4993C82.4874 15.782 83.8155 15.4233 85.3354 15.4233C86.2587 15.4233 87.1536 15.576 88.0201 15.8814C88.8865 16.1868 89.6642 16.6662 90.3532 17.3196C91.0421 17.973 91.5854 18.8217 91.9831 19.8658C92.3809 20.9027 92.5797 22.1634 92.5797 23.6477V24.777H79.5719V22.3906H89.4583C89.4583 21.5526 89.2878 20.8104 88.9469 20.1641C88.606 19.5107 88.1266 18.9957 87.5087 18.6193C86.8979 18.2429 86.1806 18.0547 85.3567 18.0547C84.4618 18.0547 83.6806 18.2749 83.013 18.7152C82.3525 19.1484 81.8411 19.7166 81.4789 20.4197C81.1238 21.1158 80.9462 21.8722 80.9462 22.6889V24.5533C80.9462 25.647 81.138 26.5774 81.5215 27.3445C81.9121 28.1115 82.4554 28.6974 83.1515 29.1023C83.8475 29.5 84.6607 29.6989 85.5911 29.6989C86.1948 29.6989 86.7452 29.6136 87.2424 29.4432C87.7395 29.2656 88.1692 29.0028 88.5314 28.6548C88.8936 28.3068 89.1706 27.8771 89.3624 27.3658L92.3773 27.9091C92.1358 28.7969 91.7026 29.5746 91.0776 30.2422C90.4597 30.9027 89.682 31.4176 88.7445 31.7869C87.8141 32.1491 86.7523 32.3303 85.5591 32.3303ZM96.114 32V15.6364H99.1928V18.2358H99.3633C99.6616 17.3551 100.187 16.6626 100.94 16.1584C101.7 15.647 102.559 15.3913 103.518 15.3913C103.717 15.3913 103.951 15.3984 104.221 15.4126C104.498 15.4268 104.715 15.4446 104.871 15.4659V18.5128C104.743 18.4773 104.516 18.4382 104.189 18.3956C103.863 18.3459 103.536 18.321 103.209 18.321C102.456 18.321 101.785 18.4808 101.196 18.8004C100.613 19.1129 100.152 19.5497 99.8107 20.1108C99.4698 20.6648 99.2994 21.2969 99.2994 22.0071V32H96.114ZM113.934 32.3303C112.351 32.3303 110.987 31.9716 109.844 31.2543C108.707 30.5298 107.834 29.532 107.223 28.2607C106.612 26.9893 106.307 25.5334 106.307 23.8928C106.307 22.2308 106.619 20.7642 107.244 19.4929C107.869 18.2145 108.75 17.2166 109.886 16.4993C111.023 15.782 112.361 15.4233 113.903 15.4233C115.145 15.4233 116.253 15.6541 117.226 16.1158C118.199 16.5703 118.984 17.2095 119.581 18.0334C120.184 18.8572 120.543 19.8196 120.657 20.9205H117.557C117.386 20.1534 116.996 19.4929 116.385 18.9389C115.781 18.3849 114.971 18.108 113.956 18.108C113.068 18.108 112.29 18.3423 111.623 18.8111C110.962 19.2727 110.447 19.9332 110.078 20.7926C109.709 21.6449 109.524 22.6534 109.524 23.8182C109.524 25.0114 109.705 26.0412 110.067 26.9077C110.43 27.7741 110.941 28.4453 111.601 28.9212C112.269 29.397 113.054 29.6349 113.956 29.6349C114.559 29.6349 115.106 29.5249 115.596 29.3047C116.094 29.0774 116.509 28.7543 116.843 28.3352C117.184 27.9162 117.422 27.4119 117.557 26.8224H120.657C120.543 27.8807 120.199 28.8253 119.623 29.6562C119.048 30.4872 118.278 31.1406 117.312 31.6165C116.353 32.0923 115.227 32.3303 113.934 32.3303ZM131.116 32.3303C129.504 32.3303 128.115 31.9858 126.95 31.2969C125.793 30.6009 124.898 29.6243 124.266 28.3672C123.641 27.103 123.328 25.6222 123.328 23.9247C123.328 22.2486 123.641 20.7713 124.266 19.4929C124.898 18.2145 125.778 17.2166 126.908 16.4993C128.044 15.782 129.372 15.4233 130.892 15.4233C131.815 15.4233 132.71 15.576 133.577 15.8814C134.443 16.1868 135.221 16.6662 135.91 17.3196C136.599 17.973 137.142 18.8217 137.54 19.8658C137.938 20.9027 138.136 22.1634 138.136 23.6477V24.777H125.129V22.3906H135.015C135.015 21.5526 134.844 20.8104 134.504 20.1641C134.163 19.5107 133.683 18.9957 133.065 18.6193C132.455 18.2429 131.737 18.0547 130.913 18.0547C130.018 18.0547 129.237 18.2749 128.57 18.7152C127.909 19.1484 127.398 19.7166 127.036 20.4197C126.68 21.1158 126.503 21.8722 126.503 22.6889V24.5533C126.503 25.647 126.695 26.5774 127.078 27.3445C127.469 28.1115 128.012 28.6974 128.708 29.1023C129.404 29.5 130.217 29.6989 131.148 29.6989C131.751 29.6989 132.302 29.6136 132.799 29.4432C133.296 29.2656 133.726 29.0028 134.088 28.6548C134.45 28.3068 134.727 27.8771 134.919 27.3658L137.934 27.9091C137.692 28.7969 137.259 29.5746 136.634 30.2422C136.016 30.9027 135.239 31.4176 134.301 31.7869C133.371 32.1491 132.309 32.3303 131.116 32.3303ZM144.856 10.1818V32H141.671V10.1818H144.856Z" fill="white" fill-opacity="0.5"/>
<path d="M24 0L48 42H0L24 0Z" fill="white" fill-opacity="0.5"/>
</svg>
