<svg width="147" height="48" viewBox="0 0 147 48" fill="none" xmlns="http://www.w3.org/2000/svg">
<path d="M48.18 32.06C47.76 32.06 47.4 31.81 47.1 31.31C46.8 30.81 46.65 29.81 46.65 28.31C46.65 26.93 46.75 25.2 46.95 23.12C47.17 21.02 47.49 18.7 47.91 16.16C48.13 15 48.54 14.04 49.14 13.28C49.76 12.52 50.56 11.88 51.54 11.36C52.54 10.84 53.71 10.38 55.05 9.98C56.39 9.58 57.77 9.22 59.19 8.9C60.63 8.56 61.98 8.29 63.24 8.09C64.52 7.87 65.57 7.76 66.39 7.76C66.97 7.76 67.41 7.88 67.71 8.12C68.01 8.36 68.16 8.61 68.16 8.87C68.16 9.11 68.09 9.32 67.95 9.5C67.83 9.66 67.59 9.79 67.23 9.89C66.97 9.97 66.42 10.11 65.58 10.31C64.76 10.49 63.75 10.71 62.55 10.97C61.37 11.23 60.12 11.51 58.8 11.81C57.48 12.09 56.2 12.38 54.96 12.68C53.54 13.08 52.51 13.59 51.87 14.21C51.25 14.81 50.84 15.66 50.64 16.76C50.6 17.04 50.54 17.45 50.46 17.99C51.02 17.77 51.72 17.53 52.56 17.27C53.4 17.01 54.26 16.76 55.14 16.52C56.02 16.28 56.83 16.09 57.57 15.95C58.31 15.79 58.86 15.71 59.22 15.71C59.48 15.71 59.75 15.87 60.03 16.19C60.33 16.51 60.48 16.84 60.48 17.18C60.48 17.34 60.43 17.5 60.33 17.66C60.23 17.8 60.06 17.91 59.82 17.99C59.68 18.03 59.33 18.13 58.77 18.29C58.23 18.43 57.57 18.61 56.79 18.83C56.03 19.05 55.23 19.29 54.39 19.55C53.55 19.79 52.75 20.02 51.99 20.24C51.25 20.46 50.63 20.65 50.13 20.81C50.03 21.77 49.92 22.77 49.8 23.81C49.68 24.85 49.57 25.84 49.47 26.78C49.39 27.7 49.32 28.49 49.26 29.15C49.2 29.79 49.17 30.2 49.17 30.38C49.17 31.5 48.84 32.06 48.18 32.06ZM67.4114 32.15C67.0314 32.15 66.6914 32.01 66.3914 31.73C66.0914 31.43 65.9414 30.97 65.9414 30.35C65.9414 29.91 66.0014 29.3 66.1214 28.52C66.2414 27.72 66.4014 26.85 66.6014 25.91C66.8014 24.97 67.0114 24.04 67.2314 23.12C67.4714 22.18 67.7114 21.34 67.9514 20.6C68.1914 19.86 68.4014 19.31 68.5814 18.95C68.7414 18.67 68.8914 18.49 69.0314 18.41C69.1914 18.33 69.3414 18.29 69.4814 18.29C69.7614 18.29 70.0014 18.38 70.2014 18.56C70.4214 18.74 70.5314 19.09 70.5314 19.61C70.5314 19.91 70.4714 20.41 70.3514 21.11C70.2514 21.79 70.1114 22.59 69.9314 23.51C69.7714 24.41 69.5914 25.34 69.3914 26.3C69.2114 27.24 69.0314 28.14 68.8514 29C68.6714 29.86 68.5314 30.58 68.4314 31.16C68.3514 31.48 68.2114 31.73 68.0114 31.91C67.8314 32.07 67.6314 32.15 67.4114 32.15ZM70.3514 15.56C69.8914 15.56 69.4514 15.42 69.0314 15.14C68.6314 14.86 68.4314 14.41 68.4314 13.79C68.4314 13.27 68.5514 12.85 68.7914 12.53C69.0514 12.21 69.3514 11.98 69.6914 11.84C70.0514 11.68 70.3614 11.6 70.6214 11.6C70.8814 11.6 71.1714 11.66 71.4914 11.78C71.8314 11.88 72.1214 12.08 72.3614 12.38C72.6014 12.66 72.7214 13.08 72.7214 13.64C72.7214 14.02 72.5914 14.36 72.3314 14.66C72.0714 14.94 71.7514 15.16 71.3714 15.32C71.0114 15.48 70.6714 15.56 70.3514 15.56ZM76.2363 39.92C74.6963 39.92 73.5663 39.77 72.8463 39.47C72.1263 39.17 71.7663 38.77 71.7663 38.27C71.7663 37.95 71.8663 37.69 72.0663 37.49C72.2863 37.29 72.5563 37.19 72.8763 37.19C73.2163 37.19 73.7063 37.24 74.3463 37.34C74.9863 37.46 75.6163 37.52 76.2363 37.52C78.2963 37.52 79.9863 36.91 81.3063 35.69C82.6263 34.47 83.6363 32.6 84.3363 30.08C85.0363 27.54 85.5063 24.3 85.7463 20.36C85.1463 21.58 84.4663 22.8 83.7063 24.02C82.9663 25.22 82.1663 26.32 81.3063 27.32C80.4663 28.3 79.5963 29.09 78.6963 29.69C77.7963 30.29 76.9063 30.59 76.0263 30.59C75.1863 30.59 74.5663 30.38 74.1663 29.96C73.7863 29.54 73.5963 28.85 73.5963 27.89C73.5963 27.03 73.8363 26.12 74.3163 25.16C74.7963 24.18 75.4363 23.2 76.2363 22.22C77.0363 21.24 77.9163 20.31 78.8763 19.43C79.8363 18.53 80.7963 17.74 81.7563 17.06C82.7363 16.36 83.6463 15.81 84.4863 15.41C85.3263 15.01 86.0063 14.81 86.5263 14.81C87.0463 14.81 87.4463 14.99 87.7263 15.35C88.0063 15.71 88.1463 16.39 88.1463 17.39C88.1463 19.73 88.0663 22.01 87.9063 24.23C87.7663 26.43 87.4763 28.48 87.0363 30.38C86.5963 32.28 85.9363 33.94 85.0563 35.36C84.1963 36.8 83.0463 37.92 81.6063 38.72C80.1663 39.52 78.3763 39.92 76.2363 39.92ZM85.2063 17.42C84.2063 18.06 83.1763 18.78 82.1163 19.58C81.0563 20.38 80.0663 21.23 79.1463 22.13C78.2463 23.03 77.5163 23.96 76.9563 24.92C76.3963 25.88 76.1163 26.84 76.1163 27.8C76.1163 28.1 76.3063 28.25 76.6863 28.25C76.9863 28.25 77.3963 28.02 77.9163 27.56C78.4563 27.08 79.0563 26.45 79.7163 25.67C80.3763 24.87 81.0463 24 81.7263 23.06C82.4263 22.1 83.0763 21.13 83.6763 20.15C84.2763 19.17 84.7863 18.26 85.2063 17.42ZM116.995 31.1C116.975 31.42 116.845 31.68 116.605 31.88C116.365 32.08 116.085 32.18 115.765 32.18C115.405 32.18 115.105 32.06 114.865 31.82C114.625 31.58 114.505 31.21 114.505 30.71C114.505 29.41 114.565 28 114.685 26.48C114.805 24.94 114.955 23.42 115.135 21.92C115.315 20.4 115.495 19 115.675 17.72C115.015 18.66 114.295 19.7 113.515 20.84C112.755 21.98 111.975 23.11 111.175 24.23C110.375 25.35 109.595 26.38 108.835 27.32C108.075 28.24 107.385 28.99 106.765 29.57C106.145 30.13 105.635 30.41 105.235 30.41C104.495 30.41 103.855 30.12 103.315 29.54C102.775 28.94 102.505 28.19 102.505 27.29C102.505 26.93 102.545 26.44 102.625 25.82C102.705 25.18 102.795 24.51 102.895 23.81C102.995 23.11 103.085 22.46 103.165 21.86C103.245 21.24 103.285 20.78 103.285 20.48C103.285 20.2 103.255 19.96 103.195 19.76C103.155 19.54 103.055 19.43 102.895 19.43C102.655 19.43 102.325 19.7 101.905 20.24C101.485 20.76 101.015 21.43 100.495 22.25C99.9951 23.07 99.4751 23.94 98.9351 24.86C98.4151 25.78 97.9251 26.65 97.4651 27.47C97.0051 28.27 96.6151 28.9 96.2951 29.36C96.0351 29.8 95.7951 30.12 95.5751 30.32C95.3551 30.52 95.0851 30.62 94.7651 30.62C94.3851 30.62 94.0351 30.42 93.7151 30.02C93.4151 29.62 93.2651 29.13 93.2651 28.55C93.2651 28.21 93.3251 27.68 93.4451 26.96C93.5651 26.22 93.7151 25.41 93.8951 24.53C94.0951 23.65 94.2851 22.79 94.4651 21.95C94.6651 21.09 94.8351 20.36 94.9751 19.76C95.1351 19.08 95.3351 18.62 95.5751 18.38C95.8151 18.14 96.0751 18.02 96.3551 18.02C96.7351 18.02 97.0351 18.16 97.2551 18.44C97.4951 18.7 97.6151 19.11 97.6151 19.67C97.6151 19.77 97.5551 20.04 97.4351 20.48C97.3151 20.9 97.1651 21.42 96.9851 22.04C96.8251 22.64 96.6451 23.27 96.4451 23.93C96.2651 24.59 96.1151 25.2 95.9951 25.76C96.4351 25.02 96.8951 24.22 97.3751 23.36C97.8751 22.5 98.3751 21.65 98.8751 20.81C99.3751 19.95 99.8751 19.17 100.375 18.47C100.875 17.75 101.365 17.18 101.845 16.76C102.325 16.34 102.785 16.13 103.225 16.13C103.745 16.13 104.225 16.29 104.665 16.61C105.125 16.93 105.495 17.36 105.775 17.9C106.055 18.44 106.195 19.04 106.195 19.7C106.195 20.16 106.115 20.81 105.955 21.65C105.795 22.47 105.625 23.36 105.445 24.32C105.285 25.28 105.185 26.19 105.145 27.05C105.145 27.25 105.205 27.35 105.325 27.35C105.425 27.35 105.545 27.28 105.685 27.14C106.265 26.5 106.905 25.73 107.605 24.83C108.305 23.91 109.015 22.94 109.735 21.92C110.475 20.9 111.205 19.9 111.925 18.92C112.645 17.92 113.315 17.02 113.935 16.22C114.575 15.4 115.135 14.75 115.615 14.27C116.115 13.79 116.505 13.55 116.785 13.55C117.385 13.55 117.845 13.72 118.165 14.06C118.485 14.4 118.645 14.97 118.645 15.77C118.645 16.41 118.595 17.24 118.495 18.26C118.415 19.28 118.305 20.39 118.165 21.59C118.045 22.79 117.905 24 117.745 25.22C117.605 26.42 117.465 27.54 117.325 28.58C117.185 29.6 117.075 30.44 116.995 31.1ZM124.305 32.78C123.545 32.78 122.915 32.43 122.415 31.73C121.935 31.01 121.695 30.08 121.695 28.94C121.695 27.88 121.955 26.83 122.475 25.79C123.015 24.75 123.725 23.75 124.605 22.79C125.485 21.83 126.445 20.95 127.485 20.15C128.525 19.33 129.565 18.62 130.605 18.02C131.665 17.42 132.635 16.95 133.515 16.61C134.395 16.27 135.095 16.1 135.615 16.1C135.895 16.1 136.125 16.16 136.305 16.28C136.485 16.38 136.575 16.57 136.575 16.85C136.575 17.03 136.505 17.2 136.365 17.36C136.385 17.36 136.405 17.36 136.425 17.36C136.865 17.36 137.085 17.62 137.085 18.14C137.085 18.32 137.015 18.69 136.875 19.25C136.735 19.79 136.575 20.47 136.395 21.29C136.215 22.11 136.055 23.02 135.915 24.02C135.775 25 135.705 26 135.705 27.02C135.705 27.88 136.035 28.31 136.695 28.31C137.435 28.31 138.185 28.14 138.945 27.8C139.705 27.46 140.445 27.05 141.165 26.57C141.885 26.07 142.545 25.58 143.145 25.1C143.745 24.6 144.255 24.18 144.675 23.84C145.095 23.5 145.395 23.33 145.575 23.33C145.735 23.33 145.875 23.38 145.995 23.48C146.115 23.58 146.175 23.74 146.175 23.96C146.175 24.16 145.975 24.52 145.575 25.04C145.175 25.56 144.645 26.15 143.985 26.81C143.325 27.47 142.585 28.11 141.765 28.73C140.945 29.35 140.105 29.86 139.245 30.26C138.385 30.66 137.565 30.86 136.785 30.86C136.185 30.86 135.635 30.68 135.135 30.32C134.655 29.94 134.265 29.3 133.965 28.4C133.685 27.5 133.545 26.26 133.545 24.68V23.93C132.565 25.55 131.535 27.03 130.455 28.37C129.395 29.71 128.335 30.78 127.275 31.58C126.235 32.38 125.245 32.78 124.305 32.78ZM135.045 18.26C134.945 18.3 134.805 18.36 134.625 18.44C133.705 18.86 132.745 19.38 131.745 20C130.765 20.62 129.805 21.31 128.865 22.07C127.945 22.83 127.115 23.62 126.375 24.44C125.635 25.26 125.045 26.09 124.605 26.93C124.165 27.77 123.945 28.59 123.945 29.39C123.945 29.65 123.995 29.85 124.095 29.99C124.215 30.13 124.415 30.2 124.695 30.2C125.095 30.2 125.615 29.95 126.255 29.45C126.895 28.93 127.595 28.25 128.355 27.41C129.135 26.57 129.915 25.64 130.695 24.62C131.475 23.6 132.215 22.57 132.915 21.53C133.635 20.49 134.255 19.53 134.775 18.65C134.855 18.51 134.945 18.38 135.045 18.26Z" fill="white" fill-opacity="0.5"/>
<path d="M24.1196 17.962H15.0453V0H24.1196C29.0167 0 33 4.028 33 8.98C33 13.932 29.0167 17.962 24.1196 17.962ZM17.9547 15.02H24.1196C27.4126 15.02 30.0906 12.31 30.0906 8.982C30.0906 5.654 27.4107 2.944 24.1196 2.944H17.9547V15.02ZM17.9547 17.962H8.88241C3.98532 17.962 0.00197768 13.934 0.00197768 8.982C0.00197768 4.03 3.98532 0 8.88241 0H17.9567V17.962H17.9547ZM8.88241 2.942C5.58933 2.942 2.91136 5.652 2.91136 8.98C2.91136 12.308 5.58933 15.02 8.88241 15.02H15.0473V2.942H8.88241ZM17.9547 32.98H8.88241C3.98532 32.98 0.00197768 28.952 0.00197768 24C0.00197768 19.048 3.98532 15.02 8.88241 15.02H17.9567V32.98H17.9547ZM8.88241 17.962C5.58933 17.962 2.91136 20.672 2.91136 24C2.91136 27.328 5.59131 30.038 8.88241 30.038H15.0473V17.962H8.88241ZM8.92988 48C4.00707 48 0 43.972 0 39.02C0 34.068 3.98334 30.04 8.88043 30.04H17.9547V38.922C17.9547 43.928 13.9061 48 8.92988 48ZM8.88241 32.98C7.29943 32.9821 5.78189 33.6189 4.66255 34.7508C3.54321 35.8827 2.91345 37.4173 2.91136 39.018C2.91136 42.348 5.61109 45.056 8.93186 45.056C12.304 45.056 15.0493 42.304 15.0493 38.92V32.98H8.88241ZM24.1196 32.98H23.9257C19.0286 32.98 15.0453 28.952 15.0453 24C15.0453 19.048 19.0286 15.02 23.9257 15.02H24.1196C29.0167 15.02 33 19.048 33 24C33 28.952 29.0167 32.98 24.1196 32.98ZM23.9277 17.962C20.6346 17.962 17.9567 20.672 17.9567 24C17.9567 27.328 20.6366 30.038 23.9277 30.038H24.1215C27.4146 30.038 30.0926 27.328 30.0926 24C30.0926 20.672 27.4107 17.962 24.1196 17.962H23.9277Z" fill="white" fill-opacity="0.5"/>
</svg>
