<svg width="156" height="48" viewBox="0 0 156 48" fill="none" xmlns="http://www.w3.org/2000/svg">
<g clip-path="url(#clip0_304_1400)">
<path d="M37.33 43.956C33.516 46.51 28.93 48 24 48C10.754 48 0 37.246 0 24C0 10.754 10.754 0 24 0C37.246 0 48 10.754 48 24C48 31.166 44.852 37.602 39.866 42.002L18.438 14.4H14.4V33.592H17.63V18.502L37.33 43.956ZM30.666 26.89L33.866 31.012V14.4H30.666V26.89Z" fill="white" fill-opacity="0.5"/>
</g>
<path d="M76.0071 13.1818V35H72.9815L61.8913 18.9986H61.6889V35H58.397V13.1818H61.4439L72.5447 29.2045H72.7472V13.1818H76.0071ZM87.606 35.3303C85.9938 35.3303 84.6053 34.9858 83.4405 34.2969C82.2828 33.6009 81.388 32.6243 80.7559 31.3672C80.1309 30.103 79.8184 28.6222 79.8184 26.9247C79.8184 25.2486 80.1309 23.7713 80.7559 22.4929C81.388 21.2145 82.2686 20.2166 83.3979 19.4993C84.5343 18.782 85.8624 18.4233 87.3823 18.4233C88.3056 18.4233 89.2005 18.576 90.0669 18.8814C90.9334 19.1868 91.7111 19.6662 92.4 20.3196C93.089 20.973 93.6323 21.8217 94.03 22.8658C94.4277 23.9027 94.6266 25.1634 94.6266 26.6477V27.777H81.6188V25.3906H91.5051C91.5051 24.5526 91.3347 23.8104 90.9938 23.1641C90.6529 22.5107 90.1735 21.9957 89.5556 21.6193C88.9448 21.2429 88.2275 21.0547 87.4036 21.0547C86.5087 21.0547 85.7275 21.2749 85.0598 21.7152C84.3993 22.1484 83.888 22.7166 83.5257 23.4197C83.1706 24.1158 82.9931 24.8722 82.9931 25.6889V27.5533C82.9931 28.647 83.1848 29.5774 83.5684 30.3445C83.959 31.1115 84.5023 31.6974 85.1983 32.1023C85.8944 32.5 86.7076 32.6989 87.638 32.6989C88.2417 32.6989 88.7921 32.6136 89.2892 32.4432C89.7864 32.2656 90.2161 32.0028 90.5783 31.6548C90.9405 31.3068 91.2175 30.8771 91.4093 30.3658L94.4242 30.9091C94.1827 31.7969 93.7495 32.5746 93.1245 33.2422C92.5066 33.9027 91.7289 34.4176 90.7914 34.7869C89.861 35.1491 88.7992 35.3303 87.606 35.3303ZM100.294 18.6364L103.906 25.0071L107.549 18.6364H111.033L105.93 26.8182L111.075 35H107.592L103.906 28.8849L100.23 35H96.736L101.828 26.8182L96.7999 18.6364H100.294ZM121.942 18.6364V21.1932H113.004V18.6364H121.942ZM115.401 14.7159H118.586V30.1953C118.586 30.8132 118.678 31.2784 118.863 31.5909C119.048 31.8963 119.286 32.1058 119.577 32.2195C119.875 32.326 120.198 32.3793 120.546 32.3793C120.802 32.3793 121.026 32.3615 121.218 32.326C121.409 32.2905 121.558 32.2621 121.665 32.2408L122.24 34.8722C122.056 34.9432 121.793 35.0142 121.452 35.0852C121.111 35.1634 120.685 35.206 120.173 35.2131C119.335 35.2273 118.554 35.0781 117.83 34.7656C117.105 34.4531 116.519 33.9702 116.072 33.3168C115.624 32.6634 115.401 31.843 115.401 30.8558V14.7159ZM127.564 35.2024C126.982 35.2024 126.481 34.9964 126.062 34.5845C125.643 34.1655 125.434 33.6612 125.434 33.0717C125.434 32.4893 125.643 31.9922 126.062 31.5803C126.481 31.1612 126.982 30.9517 127.564 30.9517C128.147 30.9517 128.647 31.1612 129.066 31.5803C129.485 31.9922 129.695 32.4893 129.695 33.0717C129.695 33.4624 129.596 33.821 129.397 34.1477C129.205 34.4673 128.949 34.723 128.63 34.9148C128.31 35.1065 127.955 35.2024 127.564 35.2024ZM133.962 18.6364H137.147V36.0653C137.147 37.1591 136.948 38.0824 136.55 38.8352C136.16 39.5881 135.577 40.1598 134.803 40.5504C134.036 40.9411 133.088 41.1364 131.959 41.1364C131.845 41.1364 131.739 41.1364 131.639 41.1364C131.533 41.1364 131.423 41.1328 131.309 41.1257V38.3878C131.408 38.3878 131.497 38.3878 131.575 38.3878C131.646 38.3878 131.728 38.3878 131.82 38.3878C132.573 38.3878 133.116 38.1854 133.45 37.7805C133.791 37.3828 133.962 36.804 133.962 36.044V18.6364ZM135.538 16.1115C134.984 16.1115 134.509 15.9268 134.111 15.5575C133.72 15.1811 133.525 14.7337 133.525 14.2152C133.525 13.6896 133.72 13.2422 134.111 12.8729C134.509 12.4964 134.984 12.3082 135.538 12.3082C136.092 12.3082 136.565 12.4964 136.955 12.8729C137.353 13.2422 137.552 13.6896 137.552 14.2152C137.552 14.7337 137.353 15.1811 136.955 15.5575C136.565 15.9268 136.092 16.1115 135.538 16.1115ZM153.694 22.6314L150.807 23.1428C150.687 22.7734 150.495 22.4219 150.232 22.0881C149.976 21.7543 149.628 21.4808 149.188 21.2678C148.748 21.0547 148.197 20.9482 147.537 20.9482C146.635 20.9482 145.882 21.1506 145.278 21.5554C144.675 21.9531 144.373 22.468 144.373 23.1001C144.373 23.647 144.575 24.0874 144.98 24.4212C145.385 24.755 146.038 25.0284 146.94 25.2415L149.54 25.8381C151.045 26.1861 152.167 26.7223 152.906 27.4467C153.645 28.1712 154.014 29.1122 154.014 30.2699C154.014 31.25 153.73 32.1236 153.162 32.8906C152.601 33.6506 151.816 34.2472 150.807 34.6804C149.806 35.1136 148.645 35.3303 147.324 35.3303C145.491 35.3303 143.996 34.9396 142.839 34.1584C141.681 33.37 140.971 32.2514 140.708 30.8026L143.787 30.3338C143.979 31.1364 144.373 31.7436 144.969 32.1555C145.566 32.5604 146.344 32.7628 147.302 32.7628C148.346 32.7628 149.181 32.5462 149.806 32.1129C150.431 31.6726 150.743 31.1364 150.743 30.5043C150.743 29.9929 150.552 29.5632 150.168 29.2152C149.792 28.8672 149.213 28.6044 148.432 28.4268L145.662 27.8196C144.135 27.4716 143.006 26.9176 142.274 26.1577C141.55 25.3977 141.187 24.4354 141.187 23.2706C141.187 22.3047 141.457 21.4595 141.997 20.7351C142.537 20.0107 143.282 19.446 144.234 19.0412C145.186 18.6293 146.276 18.4233 147.505 18.4233C149.273 18.4233 150.665 18.8068 151.681 19.5739C152.697 20.3338 153.368 21.353 153.694 22.6314Z" fill="white" fill-opacity="0.5"/>
<defs>
<clipPath id="clip0_304_1400">
<rect width="48" height="48" fill="white"/>
</clipPath>
</defs>
</svg>
