<svg width="167" height="48" viewBox="0 0 167 48" fill="none" xmlns="http://www.w3.org/2000/svg">
<path d="M60.6621 11.6719H63.9434L70.1104 28.1221L76.2627 11.6719H79.5439L71.3994 33H68.792L60.6621 11.6719ZM59.168 11.6719H62.2881L62.8301 25.9102V33H59.168V11.6719ZM77.918 11.6719H81.0527V33H77.376V25.9102L77.918 11.6719ZM94.002 29.8213V22.2627C94.002 21.6963 93.8994 21.208 93.6943 20.7979C93.4893 20.3877 93.1768 20.0703 92.7568 19.8457C92.3467 19.6211 91.8291 19.5088 91.2041 19.5088C90.6279 19.5088 90.1299 19.6064 89.71 19.8018C89.29 19.9971 88.9629 20.2607 88.7285 20.5928C88.4941 20.9248 88.377 21.3008 88.377 21.7207H84.8613C84.8613 21.0957 85.0127 20.4902 85.3154 19.9043C85.6182 19.3184 86.0576 18.7959 86.6338 18.3369C87.21 17.8779 87.8984 17.5166 88.6992 17.2529C89.5 16.9893 90.3984 16.8574 91.3945 16.8574C92.5859 16.8574 93.6406 17.0576 94.5586 17.458C95.4863 17.8584 96.2139 18.4639 96.7412 19.2744C97.2783 20.0752 97.5469 21.0811 97.5469 22.292V29.3379C97.5469 30.0605 97.5957 30.71 97.6934 31.2861C97.8008 31.8525 97.9521 32.3457 98.1475 32.7656V33H94.5293C94.3633 32.6191 94.2314 32.1357 94.1338 31.5498C94.0459 30.9541 94.002 30.3779 94.002 29.8213ZM94.5146 23.3613L94.5439 25.5439H92.0098C91.3555 25.5439 90.7793 25.6074 90.2812 25.7344C89.7832 25.8516 89.3682 26.0273 89.0361 26.2617C88.7041 26.4961 88.4551 26.7793 88.2891 27.1113C88.123 27.4434 88.04 27.8193 88.04 28.2393C88.04 28.6592 88.1377 29.0449 88.333 29.3965C88.5283 29.7383 88.8115 30.0068 89.1826 30.2021C89.5635 30.3975 90.0225 30.4951 90.5596 30.4951C91.2822 30.4951 91.9121 30.3486 92.4492 30.0557C92.9961 29.7529 93.4258 29.3867 93.7383 28.957C94.0508 28.5176 94.2168 28.1025 94.2363 27.7119L95.3789 29.2793C95.2617 29.6797 95.0615 30.1094 94.7783 30.5684C94.4951 31.0273 94.124 31.4668 93.665 31.8867C93.2158 32.2969 92.6738 32.6338 92.0391 32.8975C91.4141 33.1611 90.6914 33.293 89.8711 33.293C88.8359 33.293 87.9131 33.0879 87.1025 32.6777C86.292 32.2578 85.6572 31.6963 85.1982 30.9932C84.7393 30.2803 84.5098 29.4746 84.5098 28.5762C84.5098 27.7363 84.666 26.9941 84.9785 26.3496C85.3008 25.6953 85.7695 25.1484 86.3848 24.709C87.0098 24.2695 87.7715 23.9375 88.6699 23.7129C89.5684 23.4785 90.5938 23.3613 91.7461 23.3613H94.5146ZM104.739 20.5342V33H101.209V17.1504H104.534L104.739 20.5342ZM104.109 24.4893L102.967 24.4746C102.977 23.3516 103.133 22.3213 103.436 21.3838C103.748 20.4463 104.178 19.6406 104.725 18.9668C105.281 18.293 105.945 17.7754 106.717 17.4141C107.488 17.043 108.348 16.8574 109.295 16.8574C110.057 16.8574 110.745 16.9648 111.36 17.1797C111.985 17.3848 112.518 17.7217 112.957 18.1904C113.406 18.6592 113.748 19.2695 113.982 20.0215C114.217 20.7637 114.334 21.6768 114.334 22.7607V33H110.789V22.7461C110.789 21.9844 110.677 21.3838 110.452 20.9443C110.237 20.4951 109.92 20.1777 109.5 19.9922C109.09 19.7969 108.577 19.6992 107.962 19.6992C107.356 19.6992 106.814 19.8262 106.336 20.0801C105.857 20.334 105.452 20.6807 105.12 21.1201C104.798 21.5596 104.549 22.0674 104.373 22.6436C104.197 23.2197 104.109 23.835 104.109 24.4893ZM125.203 17.1504V19.7285H116.268V17.1504H125.203ZM118.846 13.2686H122.376V28.6201C122.376 29.1084 122.444 29.4844 122.581 29.748C122.728 30.002 122.928 30.1729 123.182 30.2607C123.436 30.3486 123.733 30.3926 124.075 30.3926C124.319 30.3926 124.554 30.3779 124.778 30.3486C125.003 30.3193 125.184 30.29 125.32 30.2607L125.335 32.9561C125.042 33.0439 124.7 33.1221 124.31 33.1904C123.929 33.2588 123.489 33.293 122.991 33.293C122.181 33.293 121.463 33.1514 120.838 32.8682C120.213 32.5752 119.725 32.1016 119.373 31.4473C119.021 30.793 118.846 29.9238 118.846 28.8398V13.2686ZM131.707 17.1504V33H128.162V17.1504H131.707ZM127.928 12.9902C127.928 12.4531 128.104 12.0088 128.455 11.6572C128.816 11.2959 129.314 11.1152 129.949 11.1152C130.574 11.1152 131.067 11.2959 131.429 11.6572C131.79 12.0088 131.971 12.4531 131.971 12.9902C131.971 13.5176 131.79 13.957 131.429 14.3086C131.067 14.6602 130.574 14.8359 129.949 14.8359C129.314 14.8359 128.816 14.6602 128.455 14.3086C128.104 13.957 127.928 13.5176 127.928 12.9902ZM139.075 20.5342V33H135.545V17.1504H138.87L139.075 20.5342ZM138.445 24.4893L137.303 24.4746C137.312 23.3516 137.469 22.3213 137.771 21.3838C138.084 20.4463 138.514 19.6406 139.061 18.9668C139.617 18.293 140.281 17.7754 141.053 17.4141C141.824 17.043 142.684 16.8574 143.631 16.8574C144.393 16.8574 145.081 16.9648 145.696 17.1797C146.321 17.3848 146.854 17.7217 147.293 18.1904C147.742 18.6592 148.084 19.2695 148.318 20.0215C148.553 20.7637 148.67 21.6768 148.67 22.7607V33H145.125V22.7461C145.125 21.9844 145.013 21.3838 144.788 20.9443C144.573 20.4951 144.256 20.1777 143.836 19.9922C143.426 19.7969 142.913 19.6992 142.298 19.6992C141.692 19.6992 141.15 19.8262 140.672 20.0801C140.193 20.334 139.788 20.6807 139.456 21.1201C139.134 21.5596 138.885 22.0674 138.709 22.6436C138.533 23.2197 138.445 23.835 138.445 24.4893ZM159.261 33.293C158.089 33.293 157.029 33.1025 156.082 32.7217C155.145 32.3311 154.344 31.7891 153.68 31.0957C153.025 30.4023 152.522 29.5869 152.171 28.6494C151.819 27.7119 151.644 26.7012 151.644 25.6172V25.0312C151.644 23.791 151.824 22.668 152.186 21.6621C152.547 20.6562 153.05 19.7969 153.694 19.084C154.339 18.3613 155.101 17.8096 155.979 17.4287C156.858 17.0479 157.811 16.8574 158.836 16.8574C159.969 16.8574 160.96 17.0479 161.81 17.4287C162.659 17.8096 163.362 18.3467 163.919 19.04C164.485 19.7236 164.905 20.5391 165.179 21.4863C165.462 22.4336 165.604 23.4785 165.604 24.6211V26.1299H153.357V23.5957H162.117V23.3174C162.098 22.6826 161.971 22.0869 161.736 21.5303C161.512 20.9736 161.165 20.5244 160.696 20.1826C160.228 19.8408 159.603 19.6699 158.821 19.6699C158.235 19.6699 157.713 19.7969 157.254 20.0508C156.805 20.2949 156.429 20.6514 156.126 21.1201C155.823 21.5889 155.589 22.1553 155.423 22.8193C155.267 23.4736 155.188 24.2109 155.188 25.0312V25.6172C155.188 26.3105 155.281 26.9551 155.467 27.5508C155.662 28.1367 155.945 28.6494 156.316 29.0889C156.688 29.5283 157.137 29.875 157.664 30.1289C158.191 30.373 158.792 30.4951 159.466 30.4951C160.315 30.4951 161.072 30.3242 161.736 29.9824C162.4 29.6406 162.977 29.1572 163.465 28.5322L165.325 30.334C164.983 30.832 164.539 31.3105 163.992 31.7695C163.445 32.2188 162.776 32.585 161.985 32.8682C161.204 33.1514 160.296 33.293 159.261 33.293Z" fill="white" fill-opacity="0.5"/>
<path d="M24 0C10.754 0 0 10.754 0 24C0 37.246 10.754 48 24 48C37.246 48 48 37.246 48 24C48 10.754 37.246 0 24 0ZM20.774 12.3C21.1963 12.2767 21.6135 12.4011 21.954 12.652C22.814 13.286 23.604 14.012 24.308 14.816H29.484C29.966 14.8149 30.4287 15.0051 30.7707 15.3448C31.1126 15.6845 31.3059 16.146 31.308 16.628C31.3075 16.8669 31.2599 17.1034 31.1679 17.3239C31.0759 17.5444 30.9414 17.7446 30.772 17.9131C30.6026 18.0815 30.4016 18.215 30.1806 18.3057C29.9596 18.3965 29.7229 18.4428 29.484 18.442H26.624C27.424 20.258 27.832 22.22 27.828 24.202C27.8328 26.1867 27.4234 28.1505 26.626 29.968H29.48C29.7192 29.9669 29.9562 30.013 30.1776 30.1037C30.3989 30.1943 30.6002 30.3276 30.77 30.4961C30.9398 30.6646 31.0747 30.8649 31.167 31.0855C31.2593 31.3062 31.3072 31.5428 31.308 31.782C31.307 32.021 31.2588 32.2575 31.1664 32.4779C31.074 32.6983 30.939 32.8983 30.7693 33.0666C30.5995 33.2349 30.3983 33.368 30.1771 33.4585C29.9559 33.549 29.719 33.5951 29.48 33.594H24.304C23.6011 34.398 22.8131 35.1236 21.954 35.758C21.5634 36.045 21.0752 36.1661 20.5958 36.095C20.1163 36.0238 19.6844 35.7661 19.394 35.378C19.2519 35.1867 19.149 34.9691 19.0912 34.7379C19.0335 34.5066 19.022 34.2662 19.0575 34.0305C19.093 33.7949 19.1748 33.5685 19.2981 33.3645C19.4214 33.1606 19.5838 32.983 19.776 32.842C21.1412 31.8531 22.2519 30.5542 23.0169 29.0521C23.7819 27.55 24.1791 25.8877 24.176 24.202C24.176 20.772 22.574 17.622 19.776 15.562C19.5842 15.4207 19.4222 15.243 19.2992 15.039C19.1762 14.835 19.0947 14.6087 19.0592 14.3732C19.0237 14.1377 19.035 13.8974 19.0925 13.6663C19.1499 13.4351 19.2524 13.2175 19.394 13.026H19.4C19.562 12.8114 19.7693 12.6351 20.0071 12.5097C20.2449 12.3842 20.5054 12.3126 20.774 12.3ZM19.218 20.89C19.9352 20.8932 20.6222 21.1795 21.1294 21.6866C21.6365 22.1938 21.9228 22.8808 21.926 23.598V23.664C21.9053 24.3694 21.6112 25.0391 21.1059 25.5317C20.6006 26.0242 19.9237 26.3012 19.218 26.304C18.5127 26.3007 17.8362 26.0235 17.3314 25.531C16.8265 25.0384 16.5327 24.369 16.512 23.664V23.598C16.5152 22.8811 16.8012 22.1945 17.3079 21.6873C17.8147 21.1802 18.5011 20.8937 19.218 20.89Z" fill="white" fill-opacity="0.5"/>
</svg>
