<svg width="84" height="31" viewBox="0 0 84 31" fill="none" xmlns="http://www.w3.org/2000/svg">
<path d="M42.2091 9.1959C42.3133 9.0952 42.3742 8.9579 42.379 8.8128H42.381C42.4513 6.0528 41.8125 3.897 40.4839 2.4046C39.081 0.829302 36.9322 0.0204 34.0968 0C31.2665 0 28.8284 0.884301 27.0455 2.5573C25.3592 4.1405 24.4077 6.3322 24.3648 8.7283C24.2925 12.8598 26.6267 15.4873 29.2298 18.0304C31.2451 20.1036 31.6149 21.1287 31.5946 22.2983C31.5701 23.6514 30.9262 24.4277 29.8269 24.4277C29.3735 24.4277 29.0098 24.287 28.7489 24.0099C28.3414 23.582 28.1611 22.8087 28.2273 21.7737C28.2383 21.7045 28.2344 21.6336 28.2158 21.5662C28.2078 21.5374 28.1973 21.5095 28.1843 21.4827C28.1668 21.4468 28.145 21.4133 28.1193 21.3824C28.0678 21.3175 28.0025 21.2648 27.9281 21.2282C27.8538 21.1914 27.7722 21.1717 27.6893 21.1705H21.7393C21.5942 21.17 21.4546 21.2262 21.3502 21.3272C21.2458 21.4279 21.1848 21.5655 21.18 21.7105C21.0404 24.5795 21.7087 26.8025 23.1667 28.3175C24.6033 29.8092 26.7632 30.5652 29.5905 30.5652C35.1269 30.5652 38.7651 27.1062 38.8599 21.7553C38.918 18.446 37.7106 15.9427 34.6979 13.1165C32.4096 10.8975 31.6058 9.6056 31.6312 8.1843C31.6536 6.9097 32.4198 6.1802 33.6078 6.1802C34.7958 6.1802 35.3765 6.9973 35.3765 8.6753C35.3765 9.0472 35.6913 9.3529 36.0683 9.3529H41.8206C41.9656 9.3531 42.1049 9.2966 42.2091 9.1959Z" fill="white" fill-opacity="0.5"/>
<path d="M24.2589 14.2886V14.2754H24.2558C24.2609 13.9983 24.0683 13.7446 23.7953 13.709C23.7718 13.7038 23.7464 13.7038 23.7219 13.7038H13.1974V13.716C12.9253 13.7486 12.7042 13.9332 12.6502 14.1767L11.5539 18.9385C11.5394 19.0027 11.5398 19.0694 11.5552 19.1333C11.5705 19.1972 11.6004 19.2569 11.6426 19.3074C11.6975 19.3721 11.7659 19.4241 11.843 19.4597C11.92 19.4952 12.004 19.5134 12.0888 19.5131H13.6925C13.7852 19.5131 13.9064 19.5266 13.9502 19.5835C13.992 19.6385 13.989 19.7619 13.9452 19.9208C13.6334 21.065 12.8917 22.3192 11.9706 23.0445C11.0486 23.7688 9.52644 24.2029 8.45974 23.5489C7.25654 22.8102 7.05274 21.0282 7.00284 19.7609C6.89784 17.0384 7.43074 14.305 8.47714 11.7885C9.22594 9.98706 10.638 6.73706 13.0323 6.73706C14.3894 6.73706 15.072 7.85766 15.1229 10.1603C15.1242 10.2118 15.1347 10.2622 15.1536 10.3095C15.1747 10.3622 15.2063 10.4107 15.247 10.4518C15.3242 10.5294 15.4282 10.5747 15.5376 10.5779H21.7831C21.9291 10.5779 22.0692 10.5207 22.1737 10.4187C22.2782 10.3167 22.3387 10.1779 22.3424 10.0319C22.3384 6.70226 21.5783 4.15936 20.0806 2.47016C18.6644 0.873557 16.6288 0.0738569 14.0359 0.0961569C5.51224 0.0961569 1.08544 8.70836 0.148064 17.2434C-0.371486 21.7894 0.486353 25.563 2.56274 27.8678C4.13384 29.612 5.98604 30.4953 8.73284 30.4953C11.7903 30.4953 14.0786 29.8167 15.935 28.3618C18.1173 26.6532 19.7699 23.8076 20.9904 19.6671C21.004 19.6213 21.0319 19.5813 21.0701 19.5527C21.1083 19.5238 21.1547 19.5084 21.2024 19.5082H22.5258C22.8355 19.5082 23.1045 19.3114 23.1636 19.0425L24.2589 14.2886Z" fill="white" fill-opacity="0.5"/>
<path fill-rule="evenodd" clip-rule="evenodd" d="M60.2087 29.558L60.2464 1.09868C60.2475 1.02748 60.2343 0.956574 60.2077 0.890474C60.1957 0.860874 60.1811 0.832276 60.1641 0.805376C60.1433 0.772276 60.1189 0.741677 60.0912 0.713877C60.068 0.690177 60.0426 0.669077 60.0156 0.650377C59.9843 0.628777 59.9507 0.610376 59.9153 0.595976C59.8494 0.568876 59.7787 0.555177 59.7074 0.555677H50.8049C50.5053 0.555677 50.3739 0.813376 50.2883 0.983476L37.3979 29.3836V29.3889L37.3929 29.3961C37.2502 29.7453 37.5212 30.1194 37.8992 30.1194H44.1223C44.4585 30.1194 44.6816 30.0174 44.7906 29.8055L46.0265 26.8355C46.1783 26.4393 46.2068 26.4025 46.6388 26.4025H52.5847C52.9984 26.4025 53.0065 26.4107 53.0004 26.8151L52.867 29.5764C52.8665 29.6068 52.8686 29.6371 52.8733 29.6669C52.8795 29.707 52.8904 29.7463 52.9056 29.7841C52.9322 29.8503 52.9717 29.9102 53.0218 29.961C53.0719 30.0115 53.1316 30.0515 53.1974 30.0786C53.2632 30.106 53.3337 30.1197 53.4049 30.1194H59.6922C59.77 30.1204 59.8471 30.1042 59.918 30.0721C59.9889 30.0401 60.052 29.993 60.1027 29.9338C60.1465 29.8826 60.1787 29.8224 60.197 29.7575C60.2152 29.6926 60.2193 29.6247 60.2087 29.558ZM49.1951 20.0564C49.1481 20.0564 49.1012 20.0549 49.0545 20.0512C49.0327 20.0494 49.0115 20.0427 48.9925 20.032C48.9735 20.0211 48.9571 20.0061 48.9445 19.9882C48.9385 19.9798 48.9333 19.9706 48.9292 19.9611C48.9247 19.9507 48.9215 19.9397 48.9194 19.9285C48.9173 19.9163 48.9166 19.9042 48.9174 19.892C48.918 19.8823 48.9196 19.8728 48.922 19.8636C48.929 19.8402 48.9377 19.8119 48.9488 19.7788C48.9569 19.7544 48.9662 19.7275 48.977 19.6987L53.4355 8.66657C53.4755 8.55787 53.5218 8.45138 53.574 8.34768C53.6464 8.19898 53.734 8.18878 53.7615 8.29888C53.7849 8.39048 53.2501 19.6263 53.2501 19.6263C53.2083 20.0472 53.1889 20.0643 52.7742 20.0992L49.1991 20.0584H49.191L49.1951 20.0564Z" fill="white" fill-opacity="0.5"/>
<path fill-rule="evenodd" clip-rule="evenodd" d="M68.1647 0.555737H72.8911L72.8962 0.552734C79.8671 0.552734 83.3475 3.71223 83.2374 9.94733C83.109 17.2536 78.6567 22.6229 71.9528 23.8606C71.0002 24.036 70.0312 24.1041 69.0633 24.0992L65.8265 24.0847C65.7734 24.0845 65.7223 24.1051 65.6842 24.1419C65.6461 24.179 65.624 24.2295 65.6227 24.2825C65.622 24.3183 65.6315 24.3536 65.6501 24.3842C65.6687 24.4148 65.6956 24.4397 65.7276 24.4556L66.1219 24.6606L67.1408 25.1924L68.1647 25.7252C68.2705 25.7804 68.3765 25.8356 68.4826 25.8901C68.7088 26.0085 68.7964 26.204 68.7455 26.4567L68.0282 29.6936C67.9691 29.9634 67.7521 30.1194 67.4342 30.1194H61.527C61.4423 30.1194 61.3586 30.101 61.2817 30.0654C61.2048 30.0299 61.1366 29.9781 61.0818 29.9137C61.0395 29.863 61.0094 29.8033 60.9939 29.7391C60.9783 29.6749 60.9777 29.6082 60.9921 29.5438L67.5697 0.985733C67.6349 0.688233 67.9151 0.555737 68.1647 0.555737ZM71.156 17.5501H71.2824C74.3847 17.4247 76.076 13.7588 76.1382 10.2021C76.1738 8.14723 75.4239 6.94383 74.0791 6.90303H69.7582C69.7058 6.90303 69.6555 6.92343 69.618 6.96003C69.5805 6.99653 69.5588 7.04634 69.5575 7.09883C69.5566 7.13463 69.5657 7.17023 69.5839 7.20103C69.6021 7.23213 69.6286 7.25723 69.6604 7.27393C69.6604 7.27393 72.3929 8.71463 72.5804 8.81863C72.7271 8.89893 72.7291 9.03553 72.6812 9.27303C72.6807 9.27823 72.2625 11.1164 71.822 13.0546C71.3304 15.2176 70.811 17.5056 70.8137 17.5093C70.8218 17.5195 70.8718 17.5501 71.156 17.5501Z" fill="white" fill-opacity="0.5"/>
</svg>
