<svg width="238" height="48" viewBox="0 0 238 48" fill="none" xmlns="http://www.w3.org/2000/svg">
<path d="M69.25 16.88H66.4C66.1 15.74 65.63 14.81 64.99 14.09C64.35 13.37 63.36 13.01 62.02 13.01C60.7 13.01 59.63 13.37 58.81 14.09C58.01 14.81 57.43 15.82 57.07 17.12C56.71 18.4 56.53 19.88 56.53 21.56C56.53 24.4 57 26.53 57.94 27.95C58.88 29.37 60.24 30.08 62.02 30.08C63.42 30.08 64.46 29.64 65.14 28.76C65.82 27.88 66.31 26.59 66.61 24.89H69.46C69.18 27.43 68.38 29.34 67.06 30.62C65.74 31.9 64.05 32.54 61.99 32.54C60.17 32.54 58.64 32.1 57.4 31.22C56.16 30.32 55.22 29.05 54.58 27.41C53.94 25.77 53.62 23.83 53.62 21.59C53.62 20.09 53.77 18.67 54.07 17.33C54.39 15.99 54.88 14.82 55.54 13.82C56.2 12.8 57.07 12 58.15 11.42C59.23 10.84 60.55 10.55 62.11 10.55C63.51 10.55 64.7 10.83 65.68 11.39C66.66 11.95 67.45 12.71 68.05 13.67C68.65 14.61 69.05 15.68 69.25 16.88ZM79.8149 15.8C81.4349 15.8 82.7649 16.17 83.8049 16.91C84.8649 17.63 85.6449 18.62 86.1449 19.88C86.6649 21.14 86.9249 22.57 86.9249 24.17C86.9249 25.75 86.6649 27.18 86.1449 28.46C85.6449 29.72 84.8649 30.72 83.8049 31.46C82.7649 32.18 81.4349 32.54 79.8149 32.54C78.2149 32.54 76.8849 32.18 75.8249 31.46C74.7649 30.72 73.9749 29.72 73.4549 28.46C72.9549 27.18 72.7049 25.75 72.7049 24.17C72.7049 22.57 72.9549 21.14 73.4549 19.88C73.9749 18.62 74.7649 17.63 75.8249 16.91C76.8849 16.17 78.2149 15.8 79.8149 15.8ZM79.8149 18.11C78.7549 18.11 77.8949 18.39 77.2349 18.95C76.5749 19.51 76.0849 20.25 75.7649 21.17C75.4649 22.09 75.3149 23.09 75.3149 24.17C75.3149 25.23 75.4649 26.23 75.7649 27.17C76.0849 28.09 76.5749 28.83 77.2349 29.39C77.8949 29.95 78.7549 30.23 79.8149 30.23C80.8749 30.23 81.7349 29.95 82.3949 29.39C83.0549 28.83 83.5349 28.09 83.8349 27.17C84.1549 26.23 84.3149 25.23 84.3149 24.17C84.3149 23.09 84.1549 22.09 83.8349 21.17C83.5349 20.25 83.0549 19.51 82.3949 18.95C81.7349 18.39 80.8749 18.11 79.8149 18.11ZM92.1198 32V16.28H94.4298V18.89C95.0498 17.93 95.7598 17.18 96.5598 16.64C97.3798 16.1 98.4098 15.83 99.6498 15.83C100.57 15.83 101.4 15.99 102.14 16.31C102.9 16.61 103.5 17.08 103.94 17.72C104.4 18.34 104.63 19.14 104.63 20.12V32H102.14V21.11C102.14 20.05 101.82 19.27 101.18 18.77C100.54 18.27 99.7798 18.02 98.8998 18.02C97.9598 18.02 97.1698 18.26 96.5298 18.74C95.8898 19.22 95.4098 19.85 95.0898 20.63C94.7698 21.41 94.6098 22.25 94.6098 23.15V32H92.1198ZM117.025 16.28H123.205V18.32H117.025V27.08C117.025 28.24 117.325 29.05 117.925 29.51C118.525 29.95 119.395 30.17 120.535 30.17C121.055 30.17 121.535 30.15 121.975 30.11C122.415 30.05 122.825 29.97 123.205 29.87V32.06C122.705 32.2 122.215 32.29 121.735 32.33C121.255 32.39 120.805 32.42 120.385 32.42C118.485 32.42 117.035 32.03 116.035 31.25C115.035 30.47 114.535 29.23 114.535 27.53V18.32H110.005V16.28H114.535V11.96H117.025V16.28ZM142.29 27.14C142.03 28.78 141.3 30.09 140.1 31.07C138.92 32.05 137.41 32.54 135.57 32.54C133.99 32.54 132.67 32.19 131.61 31.49C130.55 30.77 129.75 29.79 129.21 28.55C128.69 27.31 128.43 25.89 128.43 24.29C128.43 22.53 128.73 21.02 129.33 19.76C129.93 18.5 130.77 17.53 131.85 16.85C132.93 16.15 134.19 15.8 135.63 15.8C137.25 15.8 138.57 16.18 139.59 16.94C140.63 17.7 141.39 18.76 141.87 20.12C142.37 21.48 142.62 23.07 142.62 24.89H131.04C131.08 26.43 131.48 27.71 132.24 28.73C133 29.73 134.14 30.23 135.66 30.23C137.72 30.23 139.09 29.2 139.77 27.14H142.29ZM135.6 18.11C134.2 18.11 133.13 18.57 132.39 19.49C131.65 20.41 131.22 21.53 131.1 22.85H139.92C139.92 21.97 139.74 21.18 139.38 20.48C139.04 19.76 138.55 19.19 137.91 18.77C137.27 18.33 136.5 18.11 135.6 18.11ZM147.755 32V16.28H150.065V18.89C150.685 17.93 151.395 17.18 152.195 16.64C153.015 16.1 154.045 15.83 155.285 15.83C156.205 15.83 157.035 15.99 157.775 16.31C158.535 16.61 159.135 17.08 159.575 17.72C160.035 18.34 160.265 19.14 160.265 20.12V32H157.775V21.11C157.775 20.05 157.455 19.27 156.815 18.77C156.175 18.27 155.415 18.02 154.535 18.02C153.595 18.02 152.805 18.26 152.165 18.74C151.525 19.22 151.045 19.85 150.725 20.63C150.405 21.41 150.245 22.25 150.245 23.15V32H147.755ZM172.66 16.28H178.84V18.32H172.66V27.08C172.66 28.24 172.96 29.05 173.56 29.51C174.16 29.95 175.03 30.17 176.17 30.17C176.69 30.17 177.17 30.15 177.61 30.11C178.05 30.05 178.46 29.97 178.84 29.87V32.06C178.34 32.2 177.85 32.29 177.37 32.33C176.89 32.39 176.44 32.42 176.02 32.42C174.12 32.42 172.67 32.03 171.67 31.25C170.67 30.47 170.17 29.23 170.17 27.53V18.32H165.64V16.28H170.17V11.96H172.66V16.28ZM192.074 16.28H198.284V18.32H192.074V32H189.584V18.32H184.484V16.28H189.584V14.54C189.584 12.9 190.064 11.71 191.024 10.97C192.004 10.21 193.454 9.83 195.374 9.83C195.834 9.83 196.294 9.84 196.754 9.86C197.234 9.88 197.734 9.93 198.254 10.01V12.17C197.834 12.13 197.414 12.1 196.994 12.08C196.594 12.04 196.254 12.02 195.974 12.02C194.534 12.02 193.524 12.21 192.944 12.59C192.364 12.97 192.074 13.69 192.074 14.75V16.28ZM215.899 16.28V32H213.649V29.66C212.929 30.7 212.159 31.44 211.339 31.88C210.539 32.32 209.559 32.54 208.399 32.54C207.019 32.54 205.889 32.23 205.009 31.61C203.929 30.83 203.389 29.71 203.389 28.25V16.28H205.879V27.26C205.879 28.32 206.229 29.12 206.929 29.66C207.509 30.12 208.239 30.35 209.119 30.35C210.299 30.35 211.289 29.92 212.089 29.06C212.969 28.12 213.409 26.77 213.409 25.01V16.28H215.899ZM230.274 10.13V29.96H235.104V32H222.414V29.96H227.844V12.17H222.414V10.13H230.274Z" fill="white" fill-opacity="0.5"/>
<path d="M41.2066 32.7218C41.1208 32.6258 39.0775 30.3618 36.4874 30.3418C35.1305 30.3418 33.9172 30.9078 32.8656 32.0578C31.3231 33.7418 28.1763 35.7579 24.3849 35.8999C21.1962 36.0179 18.229 34.8038 15.559 32.2898C12.2785 29.2018 11.2588 24.2577 12.961 19.6957C14.6252 15.2356 18.4525 12.4636 23.1996 12.2816L23.2874 12.2736C23.3353 12.2676 27.881 11.7576 31.9178 15.3696C32.257 15.7396 34.2205 17.7636 36.8565 17.8256C38.4988 17.8616 40.0213 17.1536 41.3862 15.7156C42.5875 14.4516 43.1223 13.0316 42.9766 11.4916C42.6693 8.27153 39.3728 5.73951 38.9258 5.4115C38.5028 5.0435 35.1784 2.25547 29.9942 0.823448C24.9656 -0.566568 17.1833 -0.882572 8.67273 5.5215C8.28593 5.82911 7.91496 6.1562 7.56126 6.50151C7.00253 6.91752 6.51763 7.42553 6.13251 8.00753C1.96145 12.7994 -0.225658 19.0073 0.0184375 25.3617C0.431497 37.9279 10.5245 43.948 11.2848 44.382C11.8076 44.722 17.0836 48.002 24.2453 48C28.4477 48 33.3006 46.87 38.2234 43.3559C38.7183 43.0799 41.6436 41.3319 42.4199 38.3159C42.8788 36.5279 42.5037 34.6858 41.2984 32.8418L41.2066 32.7218ZM7.41958 36.6619C7.41958 34.4818 9.18955 32.7078 11.3646 32.7078C13.5396 32.7078 15.3096 34.4798 15.3096 36.6619C15.3096 38.8419 13.5396 40.6159 11.3646 40.6159C9.18955 40.6159 7.41958 38.8419 7.41958 36.6619ZM7.69695 9.34755C8.16788 8.79754 8.5969 8.35154 8.9501 8.00753C9.5933 7.57862 10.3486 7.3497 11.1212 7.34952C13.2962 7.34952 15.0662 9.12354 15.0662 11.3036C15.0662 13.4836 13.2962 15.2596 11.1212 15.2596C8.9461 15.2596 7.17614 13.4856 7.17614 11.3056C7.17614 10.5936 7.3677 9.92555 7.69695 9.34955V9.34755ZM23.9938 1.99746C31.8839 1.99746 37.2776 6.66952 37.6148 6.96952L37.7006 7.03752C38.5387 7.63753 40.7577 9.63955 40.9532 11.6856C41.041 12.6236 40.7018 13.4816 39.9156 14.3116C38.9637 15.3116 37.954 15.8156 36.9144 15.7876C34.9908 15.7496 33.4363 14.0136 33.4024 13.9776L33.3186 13.8896C28.745 9.76355 23.6805 10.1796 23.0819 10.2456C20.9792 10.3179 18.9219 10.8779 17.0716 11.8816C17.2102 10.4235 16.8119 8.96507 15.9518 7.78102C15.0917 6.59697 13.8292 5.76912 12.4022 5.4535C16.5987 2.89947 20.5377 1.99746 23.9938 1.99746ZM5.30639 12.6796C5.61606 13.9929 6.35839 15.1632 7.41347 16.0015C8.46855 16.8398 9.77477 17.2971 11.1212 17.2996C11.3646 17.2996 11.6001 17.2796 11.8355 17.2516C11.5391 17.8115 11.2791 18.3901 11.0573 18.9837C9.5607 22.9897 9.87998 27.2638 11.7737 30.6918C11.638 30.6818 11.5023 30.6718 11.3646 30.6718C9.91719 30.6744 8.51977 31.2027 7.43119 32.1588C6.34261 33.1149 5.63665 34.434 5.44408 35.8719C3.34692 32.7347 2.17149 29.0701 2.05181 25.2957C1.89152 20.8625 3.02165 16.4782 5.3044 12.6776L5.30639 12.6796ZM40.4523 37.7999C39.8537 40.1479 37.2297 41.5799 37.2057 41.5919L37.09 41.6639C24.5446 50.662 12.8712 42.9979 12.3823 42.6679L12.3104 42.6239C12.2877 42.6108 12.2651 42.5974 12.2426 42.5839C13.7497 42.358 15.114 41.5642 16.057 40.3644C17 39.1646 17.4507 37.6493 17.317 36.1279C19.5599 37.4079 21.9784 38.0299 24.4608 37.9399C28.8787 37.7739 32.5563 35.4118 34.3622 33.4398C35.0147 32.7278 35.6992 32.3798 36.4535 32.3798H36.4634C37.984 32.3878 39.3768 33.7558 39.6422 34.0318C40.4823 35.3479 40.7557 36.6139 40.4523 37.7999Z" fill="white" fill-opacity="0.5"/>
</svg>
