<svg width="115" height="26" viewBox="0 0 115 26" fill="none" xmlns="http://www.w3.org/2000/svg">
<path d="M65.22 7.95C66.52 7.95 67.66 8.2 68.64 8.7C69.64 9.2 70.42 9.96 70.98 10.98C71.54 12 71.82 13.29 71.82 14.85V24H68.94V15.18C68.94 13.64 68.56 12.48 67.8 11.7C67.06 10.92 66.01 10.53 64.65 10.53C63.63 10.53 62.74 10.73 61.98 11.13C61.22 11.53 60.63 12.12 60.21 12.9C59.81 13.68 59.61 14.65 59.61 15.81V24H56.73V8.1H59.49V12.39L59.04 11.25C59.56 10.21 60.36 9.4 61.44 8.82C62.52 8.24 63.78 7.95 65.22 7.95ZM84.0499 24.24C82.3499 24.24 80.8799 23.99 79.6399 23.49C78.3999 22.99 77.4399 22.28 76.7599 21.36C76.0799 20.42 75.7399 19.32 75.7399 18.06C75.7399 16.82 76.0599 15.77 76.6999 14.91C77.3599 14.03 78.3099 13.37 79.5499 12.93C80.7899 12.47 82.2899 12.24 84.0499 12.24C85.8099 12.24 87.3099 12.47 88.5499 12.93C89.8099 13.37 90.7699 14.03 91.4299 14.91C92.0899 15.79 92.4199 16.84 92.4199 18.06C92.4199 19.32 92.0799 20.42 91.3999 21.36C90.7199 22.28 89.7499 22.99 88.4899 23.49C87.2299 23.99 85.7499 24.24 84.0499 24.24ZM84.0499 21.81C85.7299 21.81 87.0399 21.47 87.9799 20.79C88.9399 20.09 89.4199 19.15 89.4199 17.97C89.4199 16.81 88.9399 15.9 87.9799 15.24C87.0399 14.56 85.7299 14.22 84.0499 14.22C82.3899 14.22 81.0899 14.56 80.1499 15.24C79.2099 15.9 78.7399 16.81 78.7399 17.97C78.7399 19.15 79.2099 20.09 80.1499 20.79C81.0899 21.47 82.3899 21.81 84.0499 21.81ZM84.0499 13.86C82.4499 13.86 81.0899 13.65 79.9699 13.23C78.8499 12.79 77.9899 12.17 77.3899 11.37C76.7899 10.55 76.4899 9.58 76.4899 8.46C76.4899 7.28 76.7999 6.27 77.4199 5.43C78.0599 4.57 78.9499 3.91 80.0899 3.45C81.2299 2.99 82.5499 2.76 84.0499 2.76C85.5699 2.76 86.8999 2.99 88.0399 3.45C89.1799 3.91 90.0699 4.57 90.7099 5.43C91.3499 6.27 91.6699 7.28 91.6699 8.46C91.6699 9.58 91.3699 10.55 90.7699 11.37C90.1699 12.17 89.2999 12.79 88.1599 13.23C87.0199 13.65 85.6499 13.86 84.0499 13.86ZM84.0499 11.94C85.5099 11.94 86.6499 11.64 87.4699 11.04C88.3099 10.44 88.7299 9.62 88.7299 8.58C88.7299 7.52 88.2999 6.69 87.4399 6.09C86.5799 5.49 85.4499 5.19 84.0499 5.19C82.6499 5.19 81.5299 5.49 80.6899 6.09C79.8699 6.69 79.4599 7.52 79.4599 8.58C79.4599 9.62 79.8599 10.44 80.6599 11.04C81.4799 11.64 82.6099 11.94 84.0499 11.94ZM104.947 7.95C106.247 7.95 107.387 8.2 108.367 8.7C109.367 9.2 110.147 9.96 110.707 10.98C111.267 12 111.547 13.29 111.547 14.85V24H108.667V15.18C108.667 13.64 108.287 12.48 107.527 11.7C106.787 10.92 105.737 10.53 104.377 10.53C103.357 10.53 102.467 10.73 101.707 11.13C100.947 11.53 100.357 12.12 99.9366 12.9C99.5366 13.68 99.3366 14.65 99.3366 15.81V24H96.4566V8.1H99.2166V12.39L98.7666 11.25C99.2866 10.21 100.087 9.4 101.167 8.82C102.247 8.24 103.507 7.95 104.947 7.95Z" fill="white" fill-opacity="0.5"/>
<path d="M42.9474 0C40.593 0 38.6148 1.6102 38.0538 3.7894H32.2628C29.7928 3.7894 27.6848 5.5754 27.2788 8.0114L27.0712 9.2574C26.9729 9.84732 26.6686 10.3832 26.2122 10.7698C25.7559 11.1564 25.1772 11.3685 24.5792 11.3684H22.578C22.017 9.1892 20.0388 7.579 17.6844 7.579C15.33 7.579 13.3518 9.1892 12.791 11.3684H9.946C9.385 9.1892 7.4068 7.579 5.0524 7.579C2.2622 7.579 0 9.841 0 12.6316C0 15.4222 2.262 17.6842 5.0526 17.6842C7.407 17.6842 9.3852 16.074 9.9462 13.8948H12.7908C13.3516 16.074 15.33 17.6842 17.6842 17.6842C20.0386 17.6842 22.0168 16.074 22.5778 13.8948H24.5794C25.1774 13.8948 25.756 14.1069 26.2123 14.4935C26.6686 14.88 26.973 15.4159 27.0712 16.0058L27.2788 17.2518C27.6848 19.6878 29.7928 21.4738 32.2628 21.4738H33.0012C33.562 23.6528 35.5404 25.2632 37.8948 25.2632C40.6852 25.2632 42.9474 23.0012 42.9474 20.2106C42.9474 17.42 40.6854 15.158 37.8948 15.158C35.5404 15.158 33.562 16.768 33.0012 18.9474H32.2628C31.6648 18.9475 31.0861 18.7354 30.6298 18.3488C30.1734 17.9622 29.8691 17.4263 29.7708 16.8364L29.5634 15.5904C29.3734 14.4444 28.7934 13.3992 27.9214 12.6316C28.7934 11.864 29.3734 10.8188 29.5634 9.6728L29.771 8.4268C29.8692 7.83691 30.1736 7.30101 30.6299 6.91446C31.0862 6.52791 31.6648 6.31577 32.2628 6.3158H38.0538C38.6148 8.495 40.593 10.1052 42.9474 10.1052C45.7378 10.1052 48 7.8432 48 5.0526C48 2.262 45.738 0 42.9474 0ZM42.9474 2.5264C43.2792 2.52637 43.6077 2.5917 43.9142 2.71864C44.2207 2.84559 44.4992 3.03166 44.7338 3.26625C44.9683 3.50083 45.1544 3.77933 45.2814 4.08583C45.4083 4.39234 45.4736 4.72085 45.4736 5.0526C45.4737 5.38437 45.4083 5.7129 45.2814 6.01943C45.1545 6.32595 44.9684 6.60448 44.7338 6.83908C44.4992 7.07369 44.2207 7.25978 43.9142 7.38674C43.6077 7.5137 43.2792 7.57903 42.9474 7.579C42.6156 7.57905 42.2871 7.51374 41.9805 7.3868C41.674 7.25985 41.3955 7.07376 41.1608 6.83915C40.9262 6.60454 40.7402 6.32601 40.6132 6.01947C40.4863 5.71293 40.4209 5.38439 40.421 5.0526C40.421 4.72083 40.4863 4.39231 40.6133 4.08579C40.7402 3.77927 40.9263 3.50077 41.1609 3.26618C41.3955 3.03159 41.674 2.84552 41.9806 2.71859C42.2871 2.59165 42.6156 2.52635 42.9474 2.5264ZM5.0526 10.1052C5.38439 10.1051 5.71293 10.1705 6.01947 10.2974C6.32601 10.4243 6.60454 10.6104 6.83915 10.845C7.07376 11.0797 7.25985 11.3582 7.3868 11.6647C7.51374 11.9713 7.57905 12.2998 7.579 12.6316C7.57905 12.9634 7.51374 13.2919 7.3868 13.5985C7.25985 13.905 7.07376 14.1835 6.83915 14.4182C6.60454 14.6528 6.32601 14.8389 6.01947 14.9658C5.71293 15.0927 5.38439 15.1581 5.0526 15.158C4.72083 15.158 4.39231 15.0927 4.08579 14.9657C3.77927 14.8388 3.50076 14.6527 3.26618 14.4181C3.03159 14.1835 2.84552 13.905 2.71858 13.5984C2.59165 13.2919 2.52635 12.9634 2.5264 12.6316C2.52635 12.2998 2.59165 11.9713 2.71858 11.6648C2.84552 11.3582 3.03159 11.0797 3.26618 10.8451C3.50076 10.6105 3.77927 10.4244 4.08579 10.2975C4.39231 10.1705 4.72083 10.1052 5.0526 10.1052ZM17.6842 10.1052C18.016 10.1051 18.3445 10.1705 18.6511 10.2974C18.9576 10.4243 19.2361 10.6104 19.4708 10.845C19.7054 11.0797 19.8915 11.3582 20.0184 11.6647C20.1453 11.9713 20.2107 12.2998 20.2106 12.6316C20.2107 12.9634 20.1453 13.2919 20.0184 13.5985C19.8915 13.905 19.7054 14.1835 19.4708 14.4182C19.2361 14.6528 18.9576 14.8389 18.6511 14.9658C18.3445 15.0927 18.016 15.1581 17.6842 15.158C17.3524 15.158 17.0239 15.0927 16.7174 14.9657C16.4109 14.8388 16.1324 14.6527 15.8978 14.4181C15.6632 14.1835 15.4771 13.905 15.3502 13.5984C15.2233 13.2919 15.1579 12.9634 15.158 12.6316C15.1579 12.2998 15.2233 11.9713 15.3502 11.6647C15.4771 11.3582 15.6632 11.0797 15.8978 10.845C16.1325 10.6104 16.411 10.4243 16.7175 10.2974C17.0241 10.1705 17.3524 10.1051 17.6842 10.1052ZM37.895 17.6842C38.2268 17.6842 38.5553 17.7495 38.8618 17.8765C39.1683 18.0034 39.4468 18.1895 39.6814 18.4241C39.916 18.6587 40.1021 18.9372 40.229 19.2438C40.3559 19.5503 40.4213 19.8788 40.4212 20.2106C40.4212 20.5424 40.3559 20.8709 40.229 21.1774C40.102 21.4839 39.9159 21.7624 39.6814 21.997C39.4468 22.2315 39.1683 22.4176 38.8618 22.5446C38.5553 22.6715 38.2268 22.7368 37.895 22.7368C37.5632 22.7369 37.2347 22.6715 36.9282 22.5446C36.6216 22.4177 36.3431 22.2316 36.1085 21.997C35.8739 21.7624 35.6878 21.4839 35.5609 21.1774C35.4339 20.8709 35.3686 20.5424 35.3686 20.2106C35.3685 19.8788 35.4339 19.5503 35.5608 19.2437C35.6877 18.9372 35.8738 18.6587 36.1084 18.424C36.3431 18.1894 36.6216 18.0033 36.9281 17.8764C37.2347 17.7495 37.5632 17.6841 37.895 17.6842Z" fill="white" fill-opacity="0.5"/>
</svg>
