<svg width="139" height="43" viewBox="0 0 139 43" fill="none" xmlns="http://www.w3.org/2000/svg">
<path d="M58.58 33V11.7H67.07C68.59 11.7 69.9 11.96 71 12.48C72.1 13 72.95 13.74 73.55 14.7C74.15 15.66 74.45 16.8 74.45 18.12C74.45 19.08 74.23 19.94 73.79 20.7C73.37 21.46 72.8 22.07 72.08 22.53C71.38 22.97 70.63 23.22 69.83 23.28L69.68 23.01C71.02 23.01 72.06 23.32 72.8 23.94C73.54 24.54 73.97 25.49 74.09 26.79L74.66 33H71.39L70.88 27.21C70.82 26.35 70.53 25.72 70.01 25.32C69.49 24.9 68.64 24.69 67.46 24.69H61.82V33H58.58ZM61.82 21.72H67.13C68.35 21.72 69.31 21.42 70.01 20.82C70.73 20.2 71.09 19.33 71.09 18.21C71.09 17.07 70.73 16.2 70.01 15.6C69.29 14.98 68.24 14.67 66.86 14.67H61.82V21.72ZM84.8005 33.36C83.2405 33.36 81.8905 33.02 80.7505 32.34C79.6305 31.66 78.7605 30.69 78.1405 29.43C77.5405 28.17 77.2405 26.7 77.2405 25.02C77.2405 23.34 77.5405 21.88 78.1405 20.64C78.7605 19.38 79.6305 18.41 80.7505 17.73C81.8705 17.03 83.1905 16.68 84.7105 16.68C86.1505 16.68 87.4205 17.02 88.5205 17.7C89.6205 18.36 90.4705 19.32 91.0705 20.58C91.6905 21.84 92.0005 23.36 92.0005 25.14V25.95H80.5405C80.6205 27.51 81.0305 28.68 81.7705 29.46C82.5305 30.24 83.5505 30.63 84.8305 30.63C85.7705 30.63 86.5505 30.41 87.1705 29.97C87.7905 29.53 88.2205 28.94 88.4605 28.2L91.7605 28.41C91.3405 29.89 90.5105 31.09 89.2705 32.01C88.0505 32.91 86.5605 33.36 84.8005 33.36ZM80.5405 23.55H88.6405C88.5405 22.13 88.1305 21.08 87.4105 20.4C86.7105 19.72 85.8105 19.38 84.7105 19.38C83.5705 19.38 82.6305 19.74 81.8905 20.46C81.1705 21.16 80.7205 22.19 80.5405 23.55ZM100.015 33.36C98.3549 33.36 97.0249 32.98 96.0249 32.22C95.0449 31.46 94.5549 30.39 94.5549 29.01C94.5549 27.63 94.9649 26.56 95.7849 25.8C96.6249 25.02 97.9149 24.46 99.6549 24.12L105.145 23.07C105.145 21.83 104.855 20.91 104.275 20.31C103.695 19.69 102.835 19.38 101.695 19.38C100.675 19.38 99.8749 19.61 99.2949 20.07C98.7149 20.51 98.3149 21.17 98.0949 22.05L94.8249 21.84C95.1249 20.24 95.8649 18.98 97.0449 18.06C98.2449 17.14 99.7949 16.68 101.695 16.68C103.855 16.68 105.495 17.26 106.615 18.42C107.755 19.56 108.325 21.17 108.325 23.25V29.46C108.325 29.84 108.385 30.11 108.505 30.27C108.645 30.41 108.865 30.48 109.165 30.48H109.735V33C109.635 33.02 109.475 33.04 109.255 33.06C109.035 33.08 108.805 33.09 108.565 33.09C107.885 33.09 107.295 32.98 106.795 32.76C106.315 32.54 105.955 32.18 105.715 31.68C105.475 31.16 105.355 30.47 105.355 29.61L105.685 29.76C105.525 30.46 105.175 31.08 104.635 31.62C104.115 32.16 103.445 32.59 102.625 32.91C101.825 33.21 100.955 33.36 100.015 33.36ZM100.525 30.84C101.485 30.84 102.305 30.66 102.985 30.3C103.665 29.92 104.195 29.4 104.575 28.74C104.955 28.08 105.145 27.33 105.145 26.49V25.47L100.465 26.37C99.5049 26.55 98.8249 26.84 98.4249 27.24C98.0449 27.62 97.8549 28.11 97.8549 28.71C97.8549 29.39 98.0849 29.92 98.5449 30.3C99.0249 30.66 99.6849 30.84 100.525 30.84ZM118.873 33.36C117.353 33.36 116.023 33.02 114.883 32.34C113.743 31.66 112.863 30.69 112.243 29.43C111.623 28.17 111.313 26.7 111.313 25.02C111.313 23.34 111.623 21.88 112.243 20.64C112.863 19.38 113.743 18.41 114.883 17.73C116.023 17.03 117.353 16.68 118.873 16.68C120.173 16.68 121.323 16.91 122.323 17.37C123.343 17.81 124.163 18.46 124.783 19.32C125.423 20.18 125.833 21.23 126.013 22.47L122.683 22.65C122.523 21.61 122.103 20.82 121.423 20.28C120.743 19.72 119.893 19.44 118.873 19.44C117.533 19.44 116.483 19.94 115.723 20.94C114.983 21.92 114.613 23.28 114.613 25.02C114.613 26.76 114.983 28.13 115.723 29.13C116.483 30.11 117.533 30.6 118.873 30.6C119.893 30.6 120.743 30.32 121.423 29.76C122.103 29.18 122.523 28.31 122.683 27.15L126.013 27.33C125.833 28.55 125.423 29.61 124.783 30.51C124.163 31.41 123.343 32.11 122.323 32.61C121.323 33.11 120.173 33.36 118.873 33.36ZM134.448 33C132.928 33 131.808 32.65 131.088 31.95C130.368 31.25 130.008 30.16 130.008 28.68V13.29H133.188V28.44C133.188 29.18 133.348 29.69 133.668 29.97C133.988 30.25 134.478 30.39 135.138 30.39H137.418V33H134.448ZM127.578 19.65V17.04H137.418V19.65H127.578Z" fill="white" fill-opacity="0.5"/>
<path d="M28.46 21.505C28.46 22.6977 27.9891 23.8415 27.1509 24.685C26.3127 25.5285 25.1757 26.0026 23.99 26.0032C22.804 26.0032 21.6665 25.5293 20.8278 24.6857C19.9892 23.8421 19.518 22.698 19.518 21.505C19.518 20.3124 19.9889 19.1686 20.8271 18.3251C21.6653 17.4816 22.8023 17.0074 23.988 17.0069C25.174 17.0069 26.3115 17.4808 27.1502 18.3244C27.9888 19.1679 28.46 20.312 28.46 21.505ZM33.756 0C31.064 0 27.542 1.93123 23.98 5.27467C20.42 1.94933 16.896 0.0402339 14.206 0.0402339C13.386 0.0402339 12.64 0.227322 11.994 0.599485C9.244 2.19476 8.628 7.16566 10.048 13.4039C3.96 15.2949 0 18.3185 0 21.505C0 24.7036 3.98 27.7353 10.086 29.6122C8.678 35.8746 9.306 40.8535 12.062 42.4468C12.702 42.823 13.442 43 14.266 43C16.956 43 20.48 41.0688 24.042 37.7213C27.602 41.0487 31.126 42.9578 33.816 42.9578C34.636 42.9578 35.382 42.7767 36.028 42.4045C38.776 40.8113 39.394 35.8404 37.974 29.6001C44.04 27.7252 48 24.6956 48 21.505C48 18.3064 44.02 15.2748 37.914 13.3939C39.322 7.1375 38.694 2.15453 35.938 0.559251C35.302 0.189099 34.564 0.0020117 33.756 0ZM33.746 2.19275V2.20482C34.196 2.20482 34.558 2.29333 34.862 2.4603C36.194 3.22877 36.772 6.15177 36.322 9.91163C36.214 10.837 36.038 11.8127 35.822 12.8085C33.902 12.3337 31.81 11.9696 29.608 11.7342C28.288 9.91364 26.918 8.26002 25.538 6.8116C28.722 3.83429 31.712 2.2008 33.748 2.19476L33.746 2.19275ZM14.206 2.23298C16.23 2.23298 19.234 3.85843 22.426 6.81965C21.054 8.26807 19.686 9.91162 18.386 11.7322C16.172 11.9676 14.078 12.3317 12.16 12.8145C11.936 11.8288 11.77 10.8752 11.652 9.95789C11.192 6.20005 11.76 3.27906 13.08 2.50054C13.46 2.31949 13.88 2.24304 14.206 2.23298ZM23.97 8.36865C24.88 9.31013 25.79 10.3643 26.69 11.5149C25.81 11.4747 24.91 11.4465 24 11.4465C23.08 11.4465 22.17 11.4667 21.28 11.5149C22.16 10.3643 23.07 9.31214 23.97 8.36865ZM24 13.6514C25.48 13.6514 26.954 13.7198 28.404 13.8385C29.216 15.0093 30.008 16.2585 30.77 17.5802C31.514 18.8677 32.19 20.1753 32.806 21.495C32.19 22.8126 31.514 24.1303 30.78 25.4178C30.02 26.7455 29.234 28.0088 28.42 29.1796C26.964 29.3064 25.488 29.3768 24 29.3768C22.52 29.3768 21.046 29.3064 19.596 29.1897C18.784 28.0189 17.992 26.7676 17.23 25.448C16.486 24.1605 15.81 22.8529 15.194 21.5332C15.8 20.2115 16.486 18.8918 17.22 17.6023C17.98 16.2746 18.766 15.0153 19.58 13.8445C21.036 13.7157 22.512 13.6473 24 13.6473V13.6514ZM16.73 14.1623C16.25 14.9207 15.77 15.6973 15.322 16.4959C14.872 17.2805 14.452 18.0691 14.052 18.8576C13.522 17.538 13.072 16.2223 12.7 14.9409C13.98 14.6391 15.33 14.3695 16.73 14.1623ZM31.25 14.1623C32.64 14.3695 33.98 14.625 35.262 14.9409C34.902 16.2123 34.452 17.5199 33.942 18.8295C33.542 18.0449 33.122 17.2543 32.662 16.4677C32.212 15.6792 31.732 14.9107 31.252 14.1623H31.25ZM37.376 15.5202C38.344 15.822 39.264 16.1579 40.126 16.5221C43.59 18.0107 45.83 19.958 45.83 21.503C45.82 23.048 43.58 25.0034 40.116 26.482C39.276 26.8441 38.356 27.17 37.406 27.4737C36.846 25.5465 36.114 23.5389 35.206 21.4789C36.106 19.433 36.826 17.4354 37.376 15.5162V15.5202ZM10.586 15.5283C11.142 17.4595 11.876 19.4652 12.786 21.5231C11.886 23.569 11.162 25.5666 10.614 27.4858C9.646 27.184 8.726 26.8461 7.874 26.48C4.41 24.9973 2.17 23.048 2.17 21.503C2.17 19.958 4.41 17.9986 7.874 16.5221C8.714 16.16 9.634 15.8341 10.586 15.5283ZM33.942 24.1383C34.472 25.46 34.922 26.7777 35.294 28.0571C34.014 28.373 32.662 28.6405 31.262 28.8417C31.742 28.0873 32.222 27.3088 32.672 26.5121C33.122 25.7276 33.54 24.9269 33.942 24.1383ZM14.052 24.1786C14.452 24.9672 14.872 25.7537 15.332 26.5423C15.792 27.3269 16.262 28.0953 16.742 28.8417C15.352 28.6365 14.012 28.379 12.73 28.0652C13.09 26.7978 13.542 25.4862 14.05 24.1766L14.052 24.1786ZM35.84 30.1875C36.064 31.1793 36.24 32.1348 36.348 33.0502C36.808 36.808 36.24 39.729 34.92 40.5095C34.626 40.6906 34.244 40.767 33.794 40.767C31.77 40.767 28.766 39.1436 25.574 36.1804C26.946 34.7319 28.314 33.0904 29.614 31.2718C31.828 31.0344 33.922 30.6703 35.84 30.1875ZM12.18 30.2076C14.1 30.6784 16.192 31.0425 18.394 31.2778C19.714 33.0984 21.084 34.752 22.464 36.1985C19.274 39.1818 16.28 40.8153 14.244 40.8153C13.804 40.8052 13.432 40.7147 13.138 40.5498C11.806 39.7853 11.228 36.8603 11.678 33.1004C11.786 32.1751 11.964 31.2014 12.18 30.2076ZM21.3 31.4951C22.18 31.5353 23.08 31.5635 23.99 31.5635C24.91 31.5635 25.82 31.5434 26.71 31.4951C25.83 32.6458 24.92 33.6979 24.02 34.6434C23.11 33.6979 22.2 32.6458 21.3 31.4951Z" fill="white" fill-opacity="0.5"/>
</svg>
