<svg width="218" height="48" viewBox="0 0 218 48" fill="none" xmlns="http://www.w3.org/2000/svg">
<path d="M63.321 15.0156V12.1818H80.2067V15.0156H73.3991V34H70.1179V15.0156H63.321ZM83.8208 40.1364C83.345 40.1364 82.9118 40.0973 82.5211 40.0192C82.1305 39.9482 81.8393 39.87 81.6475 39.7848L82.4146 37.1747C82.997 37.331 83.5154 37.3984 83.97 37.3771C84.4245 37.3558 84.8258 37.1854 85.1738 36.8658C85.5289 36.5462 85.8414 36.0241 86.1113 35.2997L86.5055 34.2131L80.5183 17.6364H83.9274L88.0716 30.3352H88.242L92.3862 17.6364H95.8059L89.0623 36.1839C88.7498 37.0362 88.3521 37.7571 87.8691 38.3466C87.3862 38.9432 86.8109 39.3906 86.1433 39.6889C85.4757 39.9872 84.7015 40.1364 83.8208 40.1364ZM98.7995 40.1364V17.6364H101.91V20.2891H102.177C102.361 19.9482 102.628 19.554 102.976 19.1065C103.324 18.6591 103.807 18.2685 104.425 17.9347C105.042 17.5938 105.859 17.4233 106.875 17.4233C108.196 17.4233 109.375 17.7571 110.412 18.4247C111.449 19.0923 112.262 20.0547 112.851 21.3118C113.448 22.5689 113.746 24.0817 113.746 25.8501C113.746 27.6186 113.452 29.1349 112.862 30.3991C112.273 31.6562 111.463 32.6257 110.433 33.3075C109.403 33.9822 108.228 34.3196 106.907 34.3196C105.912 34.3196 105.099 34.1527 104.467 33.8189C103.842 33.4851 103.352 33.0945 102.997 32.647C102.642 32.1996 102.368 31.8018 102.177 31.4538H101.985V40.1364H98.7995ZM101.921 25.8182C101.921 26.9687 102.088 27.9773 102.422 28.8438C102.756 29.7102 103.238 30.3885 103.871 30.8786C104.503 31.3615 105.277 31.603 106.193 31.603C107.145 31.603 107.94 31.3509 108.579 30.8466C109.219 30.3352 109.702 29.6428 110.028 28.7692C110.362 27.8956 110.529 26.9119 110.529 25.8182C110.529 24.7386 110.366 23.7692 110.039 22.9098C109.719 22.0504 109.236 21.3722 108.59 20.875C107.951 20.3778 107.152 20.1293 106.193 20.1293C105.27 20.1293 104.488 20.3672 103.849 20.843C103.217 21.3189 102.738 21.983 102.411 22.8352C102.084 23.6875 101.921 24.6818 101.921 25.8182ZM124.368 34.3303C122.756 34.3303 121.367 33.9858 120.202 33.2969C119.045 32.6009 118.15 31.6243 117.518 30.3672C116.893 29.103 116.58 27.6222 116.58 25.9247C116.58 24.2486 116.893 22.7713 117.518 21.4929C118.15 20.2145 119.03 19.2166 120.16 18.4993C121.296 17.782 122.624 17.4233 124.144 17.4233C125.067 17.4233 125.962 17.576 126.829 17.8814C127.695 18.1868 128.473 18.6662 129.162 19.3196C129.851 19.973 130.394 20.8217 130.792 21.8658C131.189 22.9027 131.388 24.1634 131.388 25.6477V26.777H118.381V24.3906H128.267C128.267 23.5526 128.096 22.8104 127.756 22.1641C127.415 21.5107 126.935 20.9957 126.317 20.6193C125.706 20.2429 124.989 20.0547 124.165 20.0547C123.27 20.0547 122.489 20.2749 121.822 20.7152C121.161 21.1484 120.65 21.7166 120.287 22.4197C119.932 23.1158 119.755 23.8722 119.755 24.6889V26.5533C119.755 27.647 119.947 28.5774 120.33 29.3445C120.721 30.1115 121.264 30.6974 121.96 31.1023C122.656 31.5 123.469 31.6989 124.4 31.6989C125.003 31.6989 125.554 31.6136 126.051 31.4432C126.548 31.2656 126.978 31.0028 127.34 30.6548C127.702 30.3068 127.979 29.8771 128.171 29.3658L131.186 29.9091C130.944 30.7969 130.511 31.5746 129.886 32.2422C129.268 32.9027 128.491 33.4176 127.553 33.7869C126.623 34.1491 125.561 34.3303 124.368 34.3303ZM147.078 17.9134C146.964 16.9048 146.496 16.1236 145.672 15.5696C144.848 15.0085 143.811 14.728 142.561 14.728C141.666 14.728 140.892 14.87 140.239 15.1541C139.585 15.4311 139.077 15.8146 138.715 16.3047C138.36 16.7876 138.183 17.3381 138.183 17.956C138.183 18.4744 138.303 18.9219 138.545 19.2983C138.793 19.6747 139.116 19.9908 139.514 20.2464C139.919 20.495 140.352 20.7045 140.814 20.875C141.276 21.0384 141.719 21.1733 142.146 21.2798L144.276 21.8338C144.972 22.0043 145.686 22.2351 146.418 22.5263C147.149 22.8175 147.827 23.201 148.452 23.6768C149.077 24.1527 149.582 24.7422 149.965 25.4453C150.356 26.1484 150.551 26.9901 150.551 27.9702C150.551 29.206 150.232 30.3033 149.592 31.2621C148.96 32.2209 148.04 32.9773 146.833 33.5312C145.633 34.0852 144.18 34.3622 142.476 34.3622C140.842 34.3622 139.429 34.103 138.236 33.5845C137.043 33.0661 136.109 32.331 135.434 31.3793C134.759 30.4205 134.386 29.2841 134.315 27.9702H137.618C137.682 28.7585 137.938 29.4155 138.385 29.9411C138.839 30.4595 139.418 30.8466 140.121 31.1023C140.832 31.3509 141.609 31.4751 142.455 31.4751C143.385 31.4751 144.212 31.3295 144.937 31.0384C145.668 30.7401 146.244 30.3281 146.663 29.8026C147.082 29.2699 147.291 28.6484 147.291 27.9382C147.291 27.2919 147.107 26.7628 146.737 26.3509C146.375 25.9389 145.881 25.598 145.256 25.3281C144.638 25.0582 143.939 24.8203 143.158 24.6143L140.58 23.9112C138.832 23.4354 137.447 22.7358 136.425 21.8125C135.409 20.8892 134.901 19.6676 134.901 18.1477C134.901 16.8906 135.242 15.7933 135.924 14.8558C136.606 13.9183 137.529 13.1903 138.694 12.6719C139.859 12.1463 141.173 11.8835 142.636 11.8835C144.113 11.8835 145.416 12.1428 146.545 12.6612C147.682 13.1797 148.577 13.8935 149.23 14.8026C149.884 15.7045 150.224 16.7415 150.253 17.9134H147.078ZM161.122 34.3303C159.538 34.3303 158.175 33.9716 157.031 33.2543C155.895 32.5298 155.021 31.532 154.41 30.2607C153.8 28.9893 153.494 27.5334 153.494 25.8928C153.494 24.2308 153.807 22.7642 154.432 21.4929C155.057 20.2145 155.937 19.2166 157.074 18.4993C158.21 17.782 159.549 17.4233 161.09 17.4233C162.333 17.4233 163.441 17.6541 164.414 18.1158C165.387 18.5703 166.172 19.2095 166.768 20.0334C167.372 20.8572 167.731 21.8196 167.844 22.9205H164.744C164.574 22.1534 164.183 21.4929 163.572 20.9389C162.969 20.3849 162.159 20.108 161.143 20.108C160.256 20.108 159.478 20.3423 158.81 20.8111C158.15 21.2727 157.635 21.9332 157.265 22.7926C156.896 23.6449 156.711 24.6534 156.711 25.8182C156.711 27.0114 156.893 28.0412 157.255 28.9077C157.617 29.7741 158.128 30.4453 158.789 30.9212C159.456 31.397 160.241 31.6349 161.143 31.6349C161.747 31.6349 162.294 31.5249 162.784 31.3047C163.281 31.0774 163.697 30.7543 164.03 30.3352C164.371 29.9162 164.609 29.4119 164.744 28.8224H167.844C167.731 29.8807 167.386 30.8253 166.811 31.6562C166.236 32.4872 165.465 33.1406 164.499 33.6165C163.54 34.0923 162.415 34.3303 161.122 34.3303ZM171.251 34V17.6364H174.33V20.2358H174.5C174.798 19.3551 175.324 18.6626 176.077 18.1584C176.837 17.647 177.696 17.3913 178.655 17.3913C178.854 17.3913 179.088 17.3984 179.358 17.4126C179.635 17.4268 179.852 17.4446 180.008 17.4659V20.5128C179.88 20.4773 179.653 20.4382 179.326 20.3956C178.999 20.3459 178.673 20.321 178.346 20.321C177.593 20.321 176.922 20.4808 176.332 20.8004C175.75 21.1129 175.288 21.5497 174.947 22.1108C174.607 22.6648 174.436 23.2969 174.436 24.0071V34H171.251ZM182.764 34V17.6364H185.95V34H182.764ZM184.373 15.1115C183.819 15.1115 183.343 14.9268 182.945 14.5575C182.555 14.1811 182.36 13.7337 182.36 13.2152C182.36 12.6896 182.555 12.2422 182.945 11.8729C183.343 11.4964 183.819 11.3082 184.373 11.3082C184.927 11.3082 185.399 11.4964 185.79 11.8729C186.188 12.2422 186.387 12.6896 186.387 13.2152C186.387 13.7337 186.188 14.1811 185.79 14.5575C185.399 14.9268 184.927 15.1115 184.373 15.1115ZM190.235 40.1364V17.6364H193.346V20.2891H193.612C193.797 19.9482 194.063 19.554 194.411 19.1065C194.759 18.6591 195.242 18.2685 195.86 17.9347C196.478 17.5938 197.295 17.4233 198.31 17.4233C199.631 17.4233 200.81 17.7571 201.847 18.4247C202.884 19.0923 203.697 20.0547 204.287 21.3118C204.884 22.5689 205.182 24.0817 205.182 25.8501C205.182 27.6186 204.887 29.1349 204.298 30.3991C203.708 31.6562 202.898 32.6257 201.869 33.3075C200.839 33.9822 199.663 34.3196 198.342 34.3196C197.348 34.3196 196.535 34.1527 195.903 33.8189C195.278 33.4851 194.788 33.0945 194.433 32.647C194.077 32.1996 193.804 31.8018 193.612 31.4538H193.42V40.1364H190.235ZM193.357 25.8182C193.357 26.9687 193.523 27.9773 193.857 28.8438C194.191 29.7102 194.674 30.3885 195.306 30.8786C195.938 31.3615 196.712 31.603 197.629 31.603C198.58 31.603 199.376 31.3509 200.015 30.8466C200.654 30.3352 201.137 29.6428 201.464 28.7692C201.798 27.8956 201.964 26.9119 201.964 25.8182C201.964 24.7386 201.801 23.7692 201.474 22.9098C201.155 22.0504 200.672 21.3722 200.026 20.875C199.386 20.3778 198.587 20.1293 197.629 20.1293C196.705 20.1293 195.924 20.3672 195.285 20.843C194.653 21.3189 194.173 21.983 193.847 22.8352C193.52 23.6875 193.357 24.6818 193.357 25.8182ZM216.389 17.6364V20.1932H207.451V17.6364H216.389ZM209.848 13.7159H213.033V29.1953C213.033 29.8132 213.126 30.2784 213.31 30.5909C213.495 30.8963 213.733 31.1058 214.024 31.2195C214.322 31.326 214.646 31.3793 214.994 31.3793C215.249 31.3793 215.473 31.3615 215.665 31.326C215.857 31.2905 216.006 31.2621 216.112 31.2408L216.688 33.8722C216.503 33.9432 216.24 34.0142 215.899 34.0852C215.558 34.1634 215.132 34.206 214.621 34.2131C213.783 34.2273 213.001 34.0781 212.277 33.7656C211.553 33.4531 210.967 32.9702 210.519 32.3168C210.072 31.6634 209.848 30.843 209.848 29.8558V13.7159Z" fill="white" fill-opacity="0.5"/>
<path d="M2.25 0C1.004 0 0 1.004 0 2.25V45.75C0 46.996 1.004 48 2.25 48H45.75C46.996 48 48 46.996 48 45.75V2.25C48 1.004 46.996 0 45.75 0H2.25ZM36.976 19.5C38.2 19.5 39.284 19.574 40.23 19.722C41.1223 19.8557 41.9978 20.0836 42.842 20.402V25.318C42.4368 25.0378 42.0062 24.796 41.556 24.596C41.0917 24.3871 40.6123 24.2132 40.122 24.076C39.1932 23.8172 38.2342 23.6827 37.27 23.676C36.67 23.676 36.124 23.732 35.632 23.848C35.1935 23.9418 34.7728 24.1052 34.386 24.332C34.046 24.54 33.786 24.79 33.6 25.08C33.4129 25.3723 33.3156 25.713 33.32 26.06C33.32 26.452 33.426 26.806 33.632 27.118C33.84 27.43 34.136 27.726 34.518 28.006C34.9 28.286 35.364 28.558 35.91 28.826C36.456 29.096 37.074 29.374 37.762 29.658C38.702 30.052 39.546 30.472 40.294 30.914C41.042 31.358 41.684 31.86 42.22 32.42C42.756 32.978 43.164 33.616 43.448 34.334C43.732 35.052 43.876 35.886 43.876 36.84C43.876 38.154 43.626 39.26 43.13 40.152C42.6454 41.0317 41.9499 41.7774 41.106 42.322C40.1964 42.8988 39.1882 43.3029 38.132 43.514C37 43.754 35.806 43.874 34.552 43.874C33.3178 43.8794 32.0858 43.7696 30.872 43.546C29.8219 43.3644 28.8034 43.0323 27.848 42.56V37.3C29.6556 38.8382 31.9485 39.6883 34.322 39.7C34.988 39.7 35.57 39.64 36.066 39.52C36.564 39.4 36.978 39.232 37.312 39.02C37.644 38.804 37.892 38.552 38.058 38.26C38.2415 37.92 38.3249 37.535 38.2987 37.1496C38.2726 36.7642 38.1378 36.394 37.91 36.082C37.6128 35.6888 37.2494 35.3504 36.836 35.082C36.3233 34.7422 35.7835 34.4452 35.222 34.194C34.5565 33.8901 33.885 33.5993 33.208 33.322C31.372 32.556 30.004 31.618 29.102 30.512C28.202 29.406 27.75 28.068 27.75 26.502C27.75 25.274 27.996 24.22 28.488 23.338C28.98 22.456 29.648 21.73 30.496 21.16C31.3929 20.5683 32.3887 20.1422 33.436 19.902C34.596 19.6285 35.7843 19.4936 36.976 19.5ZM6.75 19.876H25.876V24.208H19.012V43.5H13.578V24.208H6.75V19.876Z" fill="white" fill-opacity="0.5"/>
</svg>
